<?xml version="1.0" encoding="UTF-8" standalone="no"?>
<!DOCTYPE svg  PUBLIC '-//W3C//DTD SVG 1.1//EN'  'http://www.w3.org/Graphics/SVG/1.1/DTD/svg11.dtd'>
<svg xmlns="http://www.w3.org/2000/svg">
<defs>
<font id="SourceSansPro-Black" horiz-adv-x="540">
<font-face underline-position="-50" font-weight="900" descent="-200" panose-1="2 11 8 3 3 4 3 2 2 4" units-per-em="1000" unicode-range="U+0020-25CA" bbox="-182 -250 1248 900" x-height="500" underline-thickness="50" font-family="SourceSansPro" ascent="800" cap-height="650"/>
<missing-glyph horiz-adv-x="1000"/>
<glyph glyph-name=".notdef" horiz-adv-x="1000"/>
<glyph glyph-name=".null" horiz-adv-x="0"/>
<glyph glyph-name="nonmarkingreturn" horiz-adv-x="333"/>
<glyph glyph-name="space" horiz-adv-x="210" unicode=" "/>
<glyph glyph-name="exclam" horiz-adv-x="360" unicode="!" d="M80 92q0 44 28 74t72 30t72 -30t28 -74t-28 -74t-72 -30t-72 30t-28 74zM100 522l-6 148h172l-6 -148l-24 -278h-112z"/>
<glyph glyph-name="quotedbl" horiz-adv-x="580" unicode='&quot;' d="M80 536l-6 148h172l-6 -148l-34 -212h-92zM340 536l-6 148h172l-6 -148l-34 -212h-92z"/>
<glyph glyph-name="numbersign" d="M308 288l12 96h-92l-12 -96h92zM106 180h-72v108h84l12 96h-76v108h90l20 158h96l-18 -158h92l20 158h96l-18 -158h78v-108h-92l-12 -96h84v-108h-96l-22 -180h-98l22 180h-92l-22 -180h-98z" unicode="#"/>
<glyph glyph-name="dollar" d="M390 460q-27 24 -51.5 36t-52.5 12q-32 0 -48 -11t-16 -41q0 -19 19 -33t48 -28t62 -30t62 -39t48 -55t19 -77q0 -73 -38.5 -126t-117.5 -72v-106h-112v100q-43 5 -91.5 23.5t-86.5 52.5l74 116q41 -30 73.5 -43t64.5 -13q38 0 54 13.5t16 42.5q0 20 -19 35.5t-48 30.5 t-62 31.5t-62 39.5t-48 54t-19 75q0 76 40.5 126t113.5 66v104h112v-102q48 -8 84.5 -30t66.5 -54z" unicode="$"/>
<glyph glyph-name="percent" horiz-adv-x="870" unicode="%" d="M190 342q20 0 35 24t15 90q0 33 -4 54.5t-11 34.5t-16 18t-19 5t-19 -5t-16 -18t-11 -34.5t-4 -54.5q0 -66 15 -90t35 -24zM190 248q-36 0 -67 14t-53.5 41t-35 65.5t-12.5 87.5t12.5 87t35 64.5t53.5 40.5t67 14t66.5 -14t53 -40.5t35.5 -64.5t13 -87t-13 -87.5 t-35.5 -65.5t-53 -41t-66.5 -14zM214 -12l348 674h96l-348 -674h-96zM680 82q20 0 35 24t15 90q0 33 -4 54.5t-11 34.5t-16 18t-19 5t-19 -5t-16 -18t-11 -34.5t-4 -54.5q0 -66 15 -90t35 -24zM680 -12q-36 0 -67 14t-53.5 41t-35 65.5t-12.5 87.5t12.5 87t35 64.5 t53.5 40.5t67 14t66.5 -14t53 -40.5t35.5 -64.5t13 -87t-13 -87.5t-35.5 -65.5t-53 -41t-66.5 -14z"/>
<glyph glyph-name="ampersand" horiz-adv-x="690" unicode="&amp;" d="M630 -12q-43 8 -86.5 24t-87.5 39q-43 -29 -95 -46t-115 -17q-57 0 -99 15.5t-69.5 41.5t-41.5 60t-14 71q0 34 9 61.5t25 49t37 39t44 31.5q-19 34 -29 67t-10 62q0 35 13 67t37.5 56t59 38.5t78.5 14.5q78 0 125 -41.5t47 -112.5q0 -32 -11 -58t-29 -48t-41.5 -40.5 t-48.5 -34.5q25 -26 54 -50.5t60 -46.5q23 30 41 66t29 78h156q-17 -57 -43 -110t-63 -103q59 -29 108 -35zM239 486q0 -31 18 -65q31 18 51 38t20 49q0 42 -38 42q-20 0 -35.5 -16t-15.5 -48zM184 186q0 -30 22.5 -49t61.5 -19q29 0 64 16q-68 54 -118 113q-14 -14 -22 -29 t-8 -32z"/>
<glyph glyph-name="quotesingle" horiz-adv-x="320" unicode="&apos;" d="M80 536l-6 148h172l-6 -148l-34 -212h-92z"/>
<glyph glyph-name="parenleft" horiz-adv-x="360" unicode="(" d="M200 -180q-63 103 -97.5 214.5t-34.5 243.5t34.5 243t97.5 215l108 -44q-54 -98 -78 -204t-24 -210t24 -210t78 -204z"/>
<glyph glyph-name="parenright" horiz-adv-x="360" unicode=")" d="M52 -136q54 98 78 204t24 210t-24 210t-78 204l108 44q63 -104 97.5 -215t34.5 -243t-34.5 -243.5t-97.5 -214.5z"/>
<glyph glyph-name="asterisk" horiz-adv-x="472" unicode="*" d="M82 372l60 107l-112 52l27 83l121 -24l14 122h88l14 -123l121 25l27 -83l-113 -52l61 -107l-70 -51l-84 91l-84 -91z"/>
<glyph glyph-name="plus" d="M208 270h-174v120h174v180h124v-180h174v-120h-174v-180h-124v180z" unicode="+"/>
<glyph glyph-name="comma" horiz-adv-x="320" unicode="," d="M46 -114q60 20 90.5 52.5t30.5 69.5h-7q-39 0 -69.5 24.5t-30.5 69.5q0 42 30 68t74 26q56 0 85 -41t29 -115q0 -89 -50 -153t-148 -91z"/>
<glyph glyph-name="hyphen" horiz-adv-x="340" unicode="-" d="M44 314h252v-120h-252v120z"/>
<glyph glyph-name="period" horiz-adv-x="320" unicode="." d="M60 92q0 44 28 74t72 30t72 -30t28 -74t-28 -74t-72 -30t-72 30t-28 74z"/>
<glyph glyph-name="slash" horiz-adv-x="334" unicode="/" d="M190 710h110l-176 -870h-110z"/>
<glyph glyph-name="zero" d="M270 120q15 0 28.5 7.5t23.5 29.5t16 61t6 102t-6 101t-16 59t-23.5 27.5t-28.5 6.5t-28.5 -6.5t-23.5 -27.5t-16 -59t-6 -101t6 -102t16 -61t23.5 -29.5t28.5 -7.5zM270 -12q-53 0 -96 21.5t-74.5 63.5t-48.5 104t-17 143t17 142.5t48.5 102t74.5 61t96 20.5 q52 0 95.5 -20.5t75 -61.5t48.5 -102t17 -142t-17 -143t-48.5 -104t-75 -63.5t-95.5 -21.5z" unicode="0"/>
<glyph glyph-name="one" d="M66 138h136v328h-120v106q54 11 92 25t74 37h126v-496h114v-138h-422v138z" unicode="1"/>
<glyph glyph-name="two" d="M36 98q56 52 104.5 98t84.5 86.5t56.5 77t20.5 68.5q0 43 -21.5 63.5t-56.5 20.5q-32 0 -56.5 -18.5t-47.5 -41.5l-92 92q25 26 49 45.5t50.5 32t56 18.5t64.5 6q48 0 88 -15t69 -42t45 -65.5t16 -85.5q0 -38 -16.5 -77.5t-42.5 -78.5t-58.5 -76t-64.5 -70q24 3 54.5 5.5 t51.5 2.5h106v-144h-460v98z" unicode="2"/>
<glyph glyph-name="three" d="M98 186q29 -27 62.5 -43.5t67.5 -16.5q42 0 67 15t25 45q0 18 -6 32t-23 24t-48 15t-81 5v120q40 0 66.5 5t42.5 14.5t22.5 22.5t6.5 30q0 58 -66 58q-32 0 -57 -13t-55 -39l-86 104q47 39 97 60.5t109 21.5q105 0 167.5 -46.5t62.5 -132.5q0 -92 -102 -137v-4 q54 -17 88 -54.5t34 -97.5q0 -45 -20 -79.5t-53.5 -58.5t-78.5 -36t-94 -12q-78 0 -134 24t-92 66z" unicode="3"/>
<glyph glyph-name="four" d="M518 142h-68v-142h-160v142h-270v120l216 372h214v-362h68v-130zM290 272v72q0 16 0.5 35.5t1.5 39.5t2 39.5t2 35.5h-4q-12 -29 -25 -57t-27 -57l-58 -108h108z" unicode="4"/>
<glyph glyph-name="five" d="M98 186q29 -26 61 -43t67 -17q45 0 69.5 20t24.5 62q0 41 -24 61.5t-62 20.5q-13 0 -23 -1.5t-19.5 -4.5t-20.5 -9t-25 -15l-74 48l16 326h376v-144h-228l-8 -92q17 6 30.5 8t29.5 2q41 0 78 -12t65 -36t44.5 -61t16.5 -87q0 -53 -19.5 -95t-52.5 -70.5t-76.5 -43.5 t-91.5 -15q-78 0 -134.5 25.5t-95.5 64.5z" unicode="5"/>
<glyph glyph-name="six" d="M408 464q-15 17 -42 30.5t-54 13.5q-23 0 -43.5 -8.5t-36 -29t-25.5 -53t-12 -80.5q12 15 27 27t31.5 20t32 12t28.5 4q40 0 75.5 -11.5t61 -35.5t40.5 -61t15 -88t-17.5 -91t-47.5 -68t-70 -42.5t-85 -14.5q-46 0 -90.5 17.5t-79.5 55.5t-56.5 98.5t-21.5 146.5t22 150 t58 106t83.5 63t98.5 21q68 0 117 -24t81 -56zM282 116q27 0 47.5 19t20.5 69q0 23 -6 37.5t-15.5 23t-22.5 12t-26 3.5q-22 0 -43 -12.5t-38 -41.5q5 -33 14.5 -54.5t20.5 -34t23.5 -17t24.5 -4.5z" unicode="6"/>
<glyph glyph-name="seven" d="M152 0q4 75 14 138t28.5 121t48 114t73.5 117h-272v144h454v-106q-55 -64 -87 -120t-50 -115.5t-25.5 -129.5t-11.5 -163h-172z" unicode="7"/>
<glyph glyph-name="eight" d="M42 162q0 56 29.5 91t74.5 59v4q-38 29 -61 64.5t-23 85.5q0 42 15.5 75.5t44 56.5t67 35.5t85.5 12.5q44 0 80.5 -12.5t62.5 -35t40.5 -55.5t14.5 -73q0 -44 -23.5 -77.5t-57.5 -55.5v-4q47 -25 78 -64.5t31 -102.5q0 -38 -16.5 -70.5t-47 -56.5t-73.5 -37.5t-95 -13.5 q-48 0 -89.5 12.5t-72 35.5t-47.5 55t-17 71zM306 378q28 40 28 80q0 33 -17 51.5t-47 18.5q-23 0 -40.5 -14.5t-17.5 -47.5q0 -32 24.5 -51t69.5 -37zM189 182q0 -38 25 -57t58 -19q29 0 49 15t20 51q0 17 -8 30t-23.5 23.5t-37.5 20.5t-50 22q-14 -17 -23.5 -39.5 t-9.5 -46.5z" unicode="8"/>
<glyph glyph-name="nine" d="M130 170q15 -17 42 -30.5t54 -13.5q24 0 44 8.5t35.5 29t25.5 53t12 80.5q-12 -15 -27 -27t-31.5 -20t-32 -12t-28.5 -4q-41 0 -76 11.5t-60.5 35.5t-40.5 61t-15 88t17.5 91t47.5 68t70 42.5t85 14.5q46 0 90.5 -17.5t79.5 -55.5t56.5 -98.5t21.5 -146.5t-22 -150 t-58 -106t-83.5 -63t-98.5 -21q-68 0 -117 24t-81 56zM258 354q22 0 43 12.5t38 41.5q-5 33 -14.5 54.5t-20.5 34t-23.5 17t-24.5 4.5q-27 0 -47.5 -19t-20.5 -69q0 -23 6 -37.5t15.5 -23t22 -12t26.5 -3.5z" unicode="9"/>
<glyph glyph-name="colon" horiz-adv-x="320" unicode=":" d="M60 402q0 44 28 74t72 30t72 -30t28 -74t-28 -74t-72 -30t-72 30t-28 74zM60 92q0 44 28 74t72 30t72 -30t28 -74t-28 -74t-72 -30t-72 30t-28 74z"/>
<glyph glyph-name="semicolon" horiz-adv-x="320" unicode=";" d="M60 402q0 44 28 74t72 30t72 -30t28 -74t-28 -74t-72 -30t-72 30t-28 74zM46 -114q60 20 90.5 52.5t30.5 69.5h-7q-39 0 -69.5 24.5t-30.5 69.5q0 42 30 68t74 26q56 0 85 -41t29 -115q0 -89 -50 -153t-148 -91z"/>
<glyph glyph-name="less" d="M34 390l472 180v-140l-162 -50l-136 -46v-4l136 -46l162 -50v-140l-472 180v116z" unicode="&lt;"/>
<glyph glyph-name="equal" d="M34 510h472v-120h-472v120zM34 271h472v-120h-472v120z" unicode="="/>
<glyph glyph-name="greater" d="M506 274l-472 -180v140l162 50l136 46v4l-136 46l-162 50v140l472 -180v-116z" unicode="&gt;"/>
<glyph glyph-name="question" horiz-adv-x="478" unicode="?" d="M126 92q0 44 28 74t72 30t72 -30t28 -74t-28 -74t-72 -30t-72 30t-28 74zM152 244q-2 13 -2 26q0 17 5.5 38.5t19 44t31 41.5t32.5 36t25.5 32.5t10.5 31.5q0 27 -16.5 38.5t-39.5 11.5q-26 0 -44 -12t-38 -30l-94 86q35 42 83 68t105 26q43 0 81 -10t66.5 -31 t44.5 -54.5t16 -80.5q0 -30 -11 -53.5t-26.5 -43.5t-34 -38t-33.5 -37t-23.5 -38.5t-8.5 -38.5q0 -6 1 -13h-150z"/>
<glyph glyph-name="at" horiz-adv-x="924" unicode="@" d="M388 208q0 -58 46 -58q14 0 26.5 8.5t29.5 31.5l22 126q-5 11 -15.5 17.5t-24.5 6.5q-20 0 -35.5 -13t-26 -32.5t-16.5 -43t-6 -43.5zM48 206q0 106 37 193.5t100 149t147.5 95.5t179.5 34q83 0 150.5 -27t115 -75.5t73 -116t25.5 -147.5q0 -70 -21.5 -122t-56 -86.5 t-77 -52t-83.5 -17.5q-45 0 -78 20t-42 56h-2q-10 -15 -24 -27t-30.5 -21t-33.5 -13.5t-32 -4.5q-62 0 -99 42.5t-37 111.5q0 48 16 93t44 80t65.5 56t80.5 21q24 0 43 -11.5t31 -38.5h2l16 42h104l-48 -228q-4 -17 -4 -30q0 -44 46 -44q22 0 43 12t36.5 34.5t25 54 t9.5 69.5q0 51 -14 99t-46 85.5t-84 60.5t-128 23q-63 0 -123.5 -26t-107.5 -74t-76 -115.5t-29 -150.5q0 -74 24 -128t64.5 -89t93 -52t108.5 -17q36 0 77 10.5t71 25.5l36 -92q-47 -24 -95.5 -35t-102.5 -11q-76 0 -146.5 23t-124.5 70t-86.5 119.5t-32.5 171.5z"/>
<glyph glyph-name="A" horiz-adv-x="584" unicode="A" d="M380 138h-182l-32 -138h-176l198 650h208l198 -650h-182zM349 271l-11 45q-12 47 -24 102t-24 104h-4q-11 -50 -22.5 -104.5t-23.5 -101.5l-11 -45h120z"/>
<glyph glyph-name="B" horiz-adv-x="612" unicode="B" d="M314 132q100 0 100 74q0 36 -24.5 52t-75.5 16h-70v-142h70zM302 394q42 0 62 19t20 49t-20 43t-62 13h-58v-124h58zM72 650h234q51 0 96 -7.5t78 -25.5t52.5 -49.5t19.5 -79.5q0 -21 -6 -42.5t-19.5 -41t-34 -34.5t-48.5 -22v-4q69 -14 103.5 -50.5t34.5 -101.5 q0 -50 -20.5 -86.5t-55 -60t-81.5 -34.5t-99 -11h-254v650z"/>
<glyph glyph-name="C" horiz-adv-x="586" unicode="C" d="M44 320q0 82 26 145.5t70 107t101.5 66.5t120.5 23q62 0 112.5 -25.5t85.5 -60.5l-94 -106q-24 21 -47 32.5t-55 11.5q-29 0 -55.5 -13t-46 -37t-31 -59t-11.5 -79q0 -92 38.5 -141t101.5 -49q38 0 65.5 14.5t48.5 37.5l94 -104q-42 -48 -96 -72t-114 -24 q-64 0 -121 20.5t-100 62t-68 104t-25 145.5z"/>
<glyph glyph-name="D" horiz-adv-x="642" unicode="D" d="M254 138q35 0 66 8.5t53.5 29.5t35.5 58t13 94t-13 93t-35.5 56t-53.5 27.5t-66 7.5h-10v-374h10zM72 650h192q74 0 135.5 -18t105.5 -57t68.5 -100t24.5 -147t-24 -148t-67.5 -102t-103 -59t-129.5 -19h-202v650z"/>
<glyph glyph-name="E" horiz-adv-x="556" unicode="E" d="M72 650h420v-144h-248v-102h212v-144h-212v-116h258v-144h-430v650z"/>
<glyph glyph-name="F" horiz-adv-x="536" unicode="F" d="M72 650h424v-144h-252v-124h216v-144h-216v-238h-172v650z"/>
<glyph glyph-name="G" horiz-adv-x="646" unicode="G" d="M44 320q0 82 26 145.5t71 107t104.5 66.5t126.5 23q69 0 121 -25.5t87 -60.5l-94 -106q-24 21 -48.5 32.5t-63.5 11.5q-33 0 -61 -13t-49 -37t-32.5 -59t-11.5 -79q0 -92 41 -141t129 -49q14 0 27.5 3t22.5 9v90h-96v140h248v-310q-18 -15 -42.5 -29.5t-53 -25.5 t-61.5 -18t-67 -7q-67 0 -126 20.5t-103 62t-69.5 104t-25.5 145.5z"/>
<glyph glyph-name="H" horiz-adv-x="682" unicode="H" d="M72 650h172v-242h194v242h172v-650h-172v258h-194v-258h-172v650z"/>
<glyph glyph-name="I" horiz-adv-x="316" unicode="I" d="M72 650h172v-650h-172v650z"/>
<glyph glyph-name="J" horiz-adv-x="520" unicode="J" d="M126 198q17 -32 39 -47t43 -15q17 0 30.5 4.5t22.5 16.5t14 32t5 51v410h172v-424q0 -49 -13.5 -92t-40.5 -75.5t-68.5 -51.5t-97.5 -19q-80 0 -133 30t-89 93z"/>
<glyph glyph-name="K" horiz-adv-x="628" unicode="K" d="M72 650h172v-242h4l164 242h188l-194 -264l232 -386h-188l-144 250l-62 -88v-162h-172v650z"/>
<glyph glyph-name="L" horiz-adv-x="530" unicode="L" d="M72 650h172v-506h246v-144h-418v650z"/>
<glyph glyph-name="M" horiz-adv-x="776" unicode="M" d="M72 650h178l102 -270l36 -106h4l36 106l98 270h178v-650h-160v192q0 25 2.5 55t5.5 61.5t7 61.5t7 54h-4l-54 -152l-90 -219h-64l-90 219l-52 152h-4q3 -24 7 -54t7 -61.5t5.5 -61.5t2.5 -55v-192h-158v650z"/>
<glyph glyph-name="N" horiz-adv-x="672" unicode="N" d="M72 650h176l144 -290l62 -146h4q-3 26 -7 57t-7 63.5t-5.5 65t-2.5 62.5v188h164v-650h-176l-144 291l-62 145h-4q6 -56 14 -122t8 -126v-188h-164v650z"/>
<glyph glyph-name="O" horiz-adv-x="692" unicode="O" d="M346 136q59 0 92.5 51.5t33.5 140.5t-33.5 137.5t-92.5 48.5t-92.5 -48.5t-33.5 -137.5t33.5 -140.5t92.5 -51.5zM346 -12q-68 0 -123.5 23t-95 66.5t-61.5 107t-22 143.5t22 142.5t61.5 105t95 64.5t123.5 22q67 0 123 -22t95.5 -65t61.5 -105t22 -142t-22 -143.5 t-61.5 -107t-95.5 -66.5t-123 -23z"/>
<glyph glyph-name="P" horiz-adv-x="618" unicode="P" d="M316 342q51 0 75.5 24t24.5 68t-26 62t-74 18h-72v-172h72zM72 650h252q52 0 99.5 -10.5t83 -36t56.5 -67t21 -102.5q0 -60 -21.5 -103t-57.5 -70.5t-83 -41t-98 -13.5h-80v-206h-172v650z"/>
<glyph glyph-name="Q" horiz-adv-x="692" unicode="Q" d="M686 -160q-20 -11 -51 -17.5t-73 -6.5q-55 0 -101.5 13t-84 37t-65.5 57.5t-47 73.5q-51 12 -92.5 39.5t-70.5 69.5t-45 98t-16 124q0 80 22 142.5t61.5 105t95 64.5t123.5 22q67 0 123 -22t95.5 -65t61.5 -105t22 -142q0 -128 -53.5 -211t-145.5 -113q23 -31 61.5 -41.5 t75.5 -10.5q21 0 40 3.5t34 8.5zM342 514q-59 0 -92.5 -48.5t-33.5 -137.5t33.5 -140.5t92.5 -51.5t92.5 51.5t33.5 140.5t-33.5 137.5t-92.5 48.5z"/>
<glyph glyph-name="R" horiz-adv-x="630" unicode="R" d="M422 0l-112 218h-66v-218h-172v650h246q52 0 99.5 -10t83 -34t56.5 -64.5t21 -101.5q0 -70 -28.5 -116t-76.5 -72l141 -252h-192zM244 354h62q104 0 104 86q0 42 -26.5 58t-77.5 16h-62v-160z"/>
<glyph glyph-name="S" horiz-adv-x="564" unicode="S" d="M130 199q35 -28 75.5 -45.5t76.5 -17.5q39 0 56.5 12t17.5 34q0 12 -6 20t-17.5 15t-27.5 13.5t-37 14.5l-81 34q-26 10 -50 26.5t-42 39t-28.5 51.5t-10.5 64q0 42 18 78.5t50 64t76.5 43.5t97.5 16q56 0 113.5 -21t102.5 -66l-86 -108q-33 23 -63.5 35t-66.5 12 q-32 0 -50 -11t-18 -33q0 -23 25.5 -35.5t70.5 -29.5l79 -31q61 -24 94 -67t33 -111q0 -41 -17 -79t-49.5 -66.5t-79.5 -45.5t-108 -17q-62 0 -127.5 22.5t-118.5 70.5z"/>
<glyph glyph-name="T" horiz-adv-x="564" unicode="T" d="M196 506h-172v144h516v-144h-172v-506h-172v506z"/>
<glyph glyph-name="U" horiz-adv-x="672" unicode="U" d="M68 650h172v-356q0 -87 23.5 -122.5t74.5 -35.5t75.5 35.5t24.5 122.5v356h166v-336q0 -167 -65 -246.5t-201 -79.5q-137 0 -203.5 79.5t-66.5 246.5v336z"/>
<glyph glyph-name="V" horiz-adv-x="572" unicode="V" d="M-10 650h182l68 -284q14 -52 24 -102.5t24 -103.5h4q14 53 24.5 103.5t23.5 102.5l66 284h176l-192 -650h-208z"/>
<glyph glyph-name="W" horiz-adv-x="824" unicode="W" d="M10 650h176l36 -284q5 -51 11 -102t11 -102h4l18 102l18 102l62 284h144l62 -284q9 -49 18 -100.5t18 -103.5h4q5 52 11 103t11 101l36 284h164l-108 -650h-218l-50 258q-8 38 -13.5 77t-10.5 75h-4q-5 -36 -10.5 -75t-13.5 -77l-48 -258h-214z"/>
<glyph glyph-name="X" horiz-adv-x="588" unicode="X" d="M186 334l-166 316h192l44 -106q11 -23 21.5 -49.5t24.5 -58.5h4q11 32 21 58.5t19 49.5l38 106h184l-166 -324l176 -326h-192l-52 116q-12 26 -23 52t-23 56h-4q-11 -30 -21 -56t-21 -52l-48 -116h-184z"/>
<glyph glyph-name="Y" horiz-adv-x="544" unicode="Y" d="M186 224l-196 426h184l48 -136q12 -37 24 -72t25 -73h4q13 38 25.5 73t25.5 72l48 136h180l-196 -426v-224h-172v224z"/>
<glyph glyph-name="Z" horiz-adv-x="542" unicode="Z" d="M32 104l266 402h-240v144h452v-104l-266 -402h268v-144h-480v104z"/>
<glyph glyph-name="bracketleft" horiz-adv-x="360" unicode="[" d="M84 708h224v-90h-96v-680h96v-90h-224v860z"/>
<glyph glyph-name="backslash" horiz-adv-x="334" unicode="\" d="M34 710h110l176 -870h-110z"/>
<glyph glyph-name="bracketright" horiz-adv-x="360" unicode="]" d="M148 -62v680h-96v90h224v-860h-224v90h96z"/>
<glyph glyph-name="asciicircum" d="M202 670h136l156 -400h-140l-38 110l-44 136h-4l-44 -136l-38 -110h-140z" unicode="^"/>
<glyph glyph-name="underscore" horiz-adv-x="500" unicode="_" d="M488 -52v-94h-476v94h476z"/>
<glyph glyph-name="grave" horiz-adv-x="560" unicode="`" d="M116 728h164l88 -154h-124z"/>
<glyph glyph-name="a" horiz-adv-x="542" unicode="a" d="M206 156q0 -36 46 -36q21 0 34.5 9.5t27.5 24.5v68q-62 -9 -85 -27t-23 -39zM42 142q0 78 64 122.5t208 59.5q-6 52 -70 52q-27 0 -57 -10.5t-69 -31.5l-60 112q53 32 107 49t113 17q97 0 152.5 -55.5t55.5 -178.5v-278h-140l-12 48h-4q-30 -27 -63.5 -43.5t-74.5 -16.5 q-35 0 -63 12.5t-47.5 33.5t-29.5 49t-10 59z"/>
<glyph glyph-name="b" horiz-adv-x="580" unicode="b" d="M230 152q15 -14 31 -19t33 -5q30 0 52 28t22 100q0 62 -17.5 89t-52.5 27q-20 0 -35.5 -8t-32.5 -28v-184zM58 696h172v-162l-4 -72q26 24 58 37t65 13q44 0 80 -18t61.5 -51t39.5 -80t14 -104q0 -65 -17.5 -115.5t-46.5 -85t-66.5 -52.5t-77.5 -18q-33 0 -65 16.5 t-61 49.5h-4l-14 -54h-134v696z"/>
<glyph glyph-name="c" horiz-adv-x="472" unicode="c" d="M32 250q0 62 22 111t59 82.5t85.5 51t101.5 17.5q45 0 82.5 -15t63.5 -41l-78 -106q-17 14 -30.5 19t-27.5 5q-48 0 -75 -33.5t-27 -90.5t27.5 -90.5t68.5 -33.5q24 0 43.5 10t36.5 22l68 -108q-38 -33 -83.5 -47.5t-84.5 -14.5q-53 0 -99 17.5t-80 51t-53.5 82.5 t-19.5 111z"/>
<glyph glyph-name="d" horiz-adv-x="580" unicode="d" d="M212 252q0 -68 19.5 -96t54.5 -28q20 0 35 7.5t29 28.5v184q-15 14 -33 19t-35 5q-27 0 -48.5 -27t-21.5 -93zM36 250q0 61 17.5 110t46 82.5t65.5 51.5t75 18q41 0 67 -13.5t49 -36.5l-6 72v162h172v-696h-140l-12 46h-4q-26 -26 -59.5 -42t-66.5 -16q-47 0 -84.5 18 t-64 52t-41 82.5t-14.5 109.5z"/>
<glyph glyph-name="e" horiz-adv-x="526" unicode="e" d="M344 306q0 32 -14.5 54t-53.5 22q-29 0 -50.5 -17t-29.5 -59h148zM32 250q0 61 20.5 109.5t54 82.5t76.5 52t89 18q55 0 96 -19t68 -52t40.5 -77t13.5 -94q0 -23 -2.5 -41t-4.5 -27h-285q12 -48 43 -66t73 -18q26 0 50.5 7.5t51.5 22.5l56 -102q-41 -29 -90.5 -43.5 t-91.5 -14.5q-55 0 -102 17.5t-81.5 51t-54.5 82.5t-20 111z"/>
<glyph glyph-name="f" horiz-adv-x="360" unicode="f" d="M362 564q-12 5 -25 7.5t-25 2.5q-24 0 -38 -13.5t-14 -48.5v-12h84v-134h-84v-366h-172v366h-66v128l66 5v7q0 40 10 76.5t33.5 64.5t61 44.5t93.5 16.5q35 0 62 -6t44 -12z"/>
<glyph glyph-name="g" horiz-adv-x="546" unicode="g" d="M256 260q24 0 39 17t15 53q0 35 -15 51.5t-39 16.5t-39 -16.5t-15 -51.5q0 -36 15 -53t39 -17zM30 -82q0 59 70 96v4q-20 14 -33 34t-13 52q0 26 15 51t41 43v4q-27 18 -47.5 51t-20.5 77q0 46 18 80.5t48 57t68.5 33.5t79.5 11q44 0 80 -12h186v-124h-72q3 -9 5.5 -23 t2.5 -29q0 -44 -16 -75.5t-43 -51.5t-64 -29.5t-79 -9.5q-25 0 -56 7q-8 -7 -10 -12.5t-2 -16.5q0 -17 16 -23.5t54 -6.5h75q94 0 145.5 -30.5t51.5 -99.5q0 -41 -20.5 -74.5t-58 -57.5t-91 -37t-120.5 -13q-43 0 -81 6.5t-66.5 21.5t-45.5 38.5t-17 57.5zM170 -54 q0 -24 27 -35t71 -11q42 0 70 12.5t28 33.5q0 20 -17.5 25t-49.5 5h-39q-30 0 -45.5 1.5t-26.5 4.5q-9 -9 -13.5 -17t-4.5 -19z"/>
<glyph glyph-name="h" horiz-adv-x="582" unicode="h" d="M58 696h172v-162l-8 -86q26 23 62.5 43.5t87.5 20.5q82 0 119 -55.5t37 -148.5v-308h-172v286q0 48 -12 64t-38 16q-24 0 -40 -10t-36 -28v-328h-172v696z"/>
<glyph glyph-name="i" horiz-adv-x="288" unicode="i" d="M58 500h172v-500h-172v500zM144 562q-42 0 -69 24t-27 62t27 62t69 24t69 -24t27 -62t-27 -62t-69 -24z"/>
<glyph glyph-name="j" horiz-adv-x="290" unicode="j" d="M146 562q-42 0 -69 24t-27 62t27 62t69 24t69 -24t27 -62t-27 -62t-69 -24zM60 500h172v-474q0 -42 -9 -80.5t-31.5 -68.5t-60 -47.5t-93.5 -17.5q-35 0 -56 4t-38 10l30 126q11 -3 19 -4.5t17 -1.5q27 0 38.5 16.5t11.5 57.5v480z"/>
<glyph glyph-name="k" horiz-adv-x="568" unicode="k" d="M58 696h168v-370h4l138 174h186l-178 -208l188 -292h-186l-100 178l-52 -58v-120h-168v696z"/>
<glyph glyph-name="l" horiz-adv-x="298" unicode="l" d="M58 696h172v-526q0 -26 9.5 -35t18.5 -9h8.5t9.5 2l20 -126q-14 -6 -34.5 -10t-49.5 -4q-44 0 -73.5 13.5t-47.5 38.5t-25.5 59.5t-7.5 76.5v520z"/>
<glyph glyph-name="m" horiz-adv-x="868" unicode="m" d="M58 500h140l12 -61h4q30 29 64.5 51t85.5 22t84.5 -20.5t53.5 -59.5q31 32 67 56t87 24q82 0 120 -55.5t38 -148.5v-308h-172v286q0 48 -12 64t-38 16q-32 0 -70 -38v-328h-172v286q0 48 -12 64t-38 16q-32 0 -70 -38v-328h-172v500z"/>
<glyph glyph-name="n" horiz-adv-x="582" unicode="n" d="M58 500h140l12 -60h4q30 29 68.5 50.5t89.5 21.5q82 0 119 -55.5t37 -148.5v-308h-172v286q0 48 -12 64t-38 16q-24 0 -40 -10t-36 -28v-328h-172v500z"/>
<glyph glyph-name="o" horiz-adv-x="560" unicode="o" d="M208 250q0 -57 16.5 -90.5t55.5 -33.5t55.5 33.5t16.5 90.5t-16.5 90.5t-55.5 33.5t-55.5 -33.5t-16.5 -90.5zM32 250q0 62 20.5 111t55 82.5t79.5 51t93 17.5t92.5 -17.5t79 -51t55.5 -82.5t21 -111t-21 -111t-55.5 -82.5t-79 -51t-92.5 -17.5t-93 17.5t-79.5 51 t-55 82.5t-20.5 111z"/>
<glyph glyph-name="p" horiz-adv-x="580" unicode="p" d="M230 152q15 -14 31 -19t33 -5q30 0 52 28t22 100q0 62 -17.5 89t-52.5 27q-20 0 -35.5 -8t-32.5 -28v-184zM230 -38v-138h-172v676h140l12 -46h4q28 26 63 42t73 16q44 0 80 -18t61.5 -51t39 -80t13.5 -105q0 -65 -17.5 -115t-46.5 -84.5t-66.5 -52.5t-77.5 -18 q-62 0 -112 50z"/>
<glyph glyph-name="q" horiz-adv-x="580" unicode="q" d="M212 252q0 -68 19.5 -96t54.5 -28q20 0 35 7.5t29 28.5v184q-15 14 -33 19t-35 5q-27 0 -48.5 -27t-21.5 -93zM36 250q0 61 17.5 110t46 82.5t65.5 51.5t75 18q40 0 70.5 -14.5t59.5 -47.5h4l14 50h134v-676h-172v143l6 71q-23 -23 -54.5 -36.5t-61.5 -13.5 q-47 0 -84.5 18t-64 52t-41 82.5t-14.5 109.5z"/>
<glyph glyph-name="r" horiz-adv-x="418" unicode="r" d="M58 500h140l12 -86h4q28 51 66.5 74.5t75.5 23.5q23 0 37 -2.5t25 -7.5l-28 -148q-14 3 -26.5 5.5t-29.5 2.5q-27 0 -56.5 -18.5t-47.5 -65.5v-278h-172v500z"/>
<glyph glyph-name="s" horiz-adv-x="452" unicode="s" d="M94 164q68 -50 122 -50q27 0 38.5 7.5t11.5 22.5q0 10 -8 17.5t-21.5 14t-30.5 12.5t-36 14q-22 9 -44.5 21.5t-40.5 30.5t-29.5 41.5t-11.5 54.5q0 37 14.5 67t40.5 51t62.5 32.5t80.5 11.5q62 0 106.5 -20.5t77.5 -45.5l-76 -102q-27 20 -53 31t-49 11q-44 0 -44 -28 q0 -10 7.5 -17t20.5 -13t30 -11.5t36 -12.5q22 -8 45 -20t41.5 -29.5t30 -42t11.5 -58.5q0 -35 -14 -65.5t-41 -53t-67 -35t-92 -12.5q-48 0 -101.5 19t-92.5 51z"/>
<glyph glyph-name="t" horiz-adv-x="400" unicode="t" d="M80 366h-66v128l76 6l20 130h142v-130h114v-134h-114v-171q0 -42 18 -57.5t42 -15.5q12 0 23.5 2.5t20.5 5.5l26 -124q-20 -6 -48 -12t-70 -6q-49 0 -83.5 14.5t-57 41.5t-33 64.5t-10.5 83.5v174z"/>
<glyph glyph-name="u" horiz-adv-x="578" unicode="u" d="M54 500h172v-286q0 -48 12 -64t38 -16q24 0 39.5 10t32.5 34v322h172v-500h-140l-12 66h-4q-30 -36 -66.5 -57t-87.5 -21q-41 0 -70.5 14.5t-48.5 41t-28 64t-9 84.5v308z"/>
<glyph glyph-name="v" horiz-adv-x="544" unicode="v" d="M12 500h172l54 -218q18 -75 36 -156h4q18 81 36 156l54 218h164l-158 -500h-198z"/>
<glyph glyph-name="w" horiz-adv-x="798" unicode="w" d="M24 500h170l38 -210q6 -38 10 -75.5t10 -76.5h4q6 39 12.5 77.5t15.5 74.5l46 210h146l48 -210q9 -38 15.5 -75.5t14.5 -76.5h4q6 39 10 76.5t10 75.5l38 210h158l-114 -500h-200l-36 174l-12 70t-12 77h-4l-11 -77t-11 -70l-34 -174h-196z"/>
<glyph glyph-name="x" d="M164 260l-142 240h184l36 -70q10 -21 20 -43t20 -43h4q7 21 15 43t15 43l24 70h178l-142 -260l150 -240h-184l-40 70q-11 21 -22 43t-22 43h-4q-8 -21 -17 -42.5t-17 -43.5l-28 -70h-178z" unicode="x"/>
<glyph glyph-name="y" horiz-adv-x="542" unicode="y" d="M86 -48q7 -2 15.5 -4t16.5 -2q35 0 52.5 13.5t25.5 36.5l6 22l-190 482h172l60 -192q11 -35 19 -69.5t17 -72.5h4q8 36 15.5 71t16.5 71l50 192h164l-168 -492q-20 -51 -40.5 -88t-47.5 -61t-61.5 -35.5t-80.5 -11.5q-26 0 -42.5 2.5t-33.5 7.5z"/>
<glyph glyph-name="z" horiz-adv-x="474" unicode="z" d="M40 92l190 274h-168v134h382v-92l-190 -274h196v-134h-410v92z"/>
<glyph glyph-name="braceleft" horiz-adv-x="360" unicode="{" d="M106 -6q0 26 1.5 46t3.5 38t3.5 36.5t1.5 41.5q0 26 -19 48t-67 24v100q48 2 67 24t19 48q0 23 -1.5 41.5t-3.5 36.5t-3.5 38t-1.5 46q0 82 31.5 114t100.5 32h70v-90h-16q-28 0 -38 -11.5t-10 -50.5q0 -38 2 -75t2 -81q0 -60 -20 -85.5t-60 -34.5v-4q40 -9 60 -34.5 t20 -85.5q0 -44 -2 -81t-2 -75q0 -39 10 -50.5t38 -11.5h16v-90h-70q-35 0 -59.5 7.5t-41 24.5t-24 45t-7.5 69z"/>
<glyph glyph-name="bar" horiz-adv-x="278" unicode="|" d="M84 750h110v-1000h-110v1000z"/>
<glyph glyph-name="braceright" horiz-adv-x="360" unicode="}" d="M68 -62q28 0 38 11.5t10 50.5q0 38 -2 75t-2 81q0 60 20 85.5t60 34.5v4q-40 9 -60 34.5t-20 85.5q0 44 2 81t2 75q0 39 -10 50.5t-38 11.5h-16v90h70q69 0 100.5 -32t31.5 -114q0 -26 -1.5 -46t-3.5 -38t-3.5 -36.5t-1.5 -41.5q0 -26 19 -48t67 -24v-100q-48 -2 -67 -24 t-19 -48q0 -23 1.5 -41.5t3.5 -36.5t3.5 -38t1.5 -46q0 -41 -7.5 -69t-24 -45t-41.5 -24.5t-59 -7.5h-70v90h16z"/>
<glyph glyph-name="asciitilde" d="M26 318q41 60 81 84t79 24q31 0 54 -11.5t42 -25t36.5 -24.5t37.5 -11t37.5 15t32.5 41l88 -68q-41 -60 -81 -84t-79 -24q-32 0 -54.5 11t-41.5 24.5t-36.5 25t-37.5 11.5t-37.5 -15t-32.5 -41z" unicode="~"/>
<glyph glyph-name="uni00A0" horiz-adv-x="210" unicode=" "/>
<glyph glyph-name="exclamdown" horiz-adv-x="360" unicode="¡" d="M280 408q0 -44 -28 -74t-72 -30t-72 30t-28 74t28 74t72 30t72 -30t28 -74zM260 -22l6 -148h-172l6 148l24 278h112z"/>
<glyph glyph-name="cent" d="M500 106q-29 -25 -62.5 -39.5t-65.5 -19.5v-91h-92v91q-101 14 -160.5 80.5t-59.5 178.5q0 53 16.5 96.5t45.5 76t69.5 53.5t88.5 30v94h92v-89q38 -4 69 -18.5t53 -36.5l-78 -106q-23 18 -44 23v-245q17 4 32 12t28 18zM280 413q-28 -15 -41 -42.5t-13 -64.5 q0 -76 54 -107v214z" unicode="¢"/>
<glyph glyph-name="sterling" d="M264 144h250v-144h-468v106q42 18 74 54.5t32 89.5v8t-1 8h-99v98l68 6h2q-5 17 -8.5 32.5t-3.5 29.5q0 49 17 89t47 67.5t71 42.5t89 15q57 0 100.5 -21t79.5 -63l-92 -92q-32 38 -70 38q-35 0 -56.5 -19.5t-21.5 -66.5q0 -13 2 -25.5t4 -26.5h144v-104h-123q1 -5 1 -9 v-9q0 -29 -8.5 -51.5t-29.5 -48.5v-4z" unicode="£"/>
<glyph glyph-name="currency" d="M196 330q0 -39 21 -61.5t53 -22.5t53 22.5t21 61.5t-21 61.5t-53 22.5t-53 -22.5t-21 -61.5zM17 161l60 60q-33 47 -33 109q0 32 8.5 58.5t23.5 48.5l-59 60l85 85l70 -70q48 20 98 20t98 -20l70 70l85 -85l-60 -60q16 -22 24.5 -48.5t8.5 -58.5t-9 -59t-25 -50l61 -60 l-85 -85l-71 71q-23 -10 -48 -14.5t-49 -4.5q-52 0 -97 19l-71 -71z" unicode="¤"/>
<glyph glyph-name="yen" d="M184 634l40 -118q11 -33 22.5 -65.5t23.5 -64.5h4q11 32 23 65t23 65l40 118h172l-140 -282h114v-80h-150v-50h150v-80h-150v-142h-172v142h-150v80h150v50h-150v80h114l-140 282h176z" unicode="¥"/>
<glyph glyph-name="brokenbar" horiz-adv-x="278" unicode="¦" d="M194 200v-450h-110v450h110zM84 750h110v-430h-110v430z"/>
<glyph glyph-name="section" d="M384 518q-23 20 -51 34t-51 14q-22 0 -33 -6.5t-11 -23.5q0 -14 20 -25.5t49.5 -24.5t64.5 -29.5t64.5 -39.5t49.5 -55.5t20 -77.5q0 -83 -81 -135q21 -32 21 -75q0 -35 -12.5 -65.5t-38 -53t-64 -35t-89.5 -12.5q-56 0 -111.5 21.5t-90.5 68.5l98 86q24 -26 51 -38 t53 -12q27 0 38.5 8.5t11.5 23.5q0 16 -19 28t-48 24t-62 27.5t-62 38.5t-48 55.5t-19 80.5q0 35 20.5 69.5t56.5 57.5q-13 17 -20 37t-7 46q0 74 50 118t138 44q62 0 110 -21.5t80 -46.5zM178 332q0 -20 14.5 -34.5t37.5 -26.5t51 -24t56 -26q25 19 25 49q0 20 -14 35 t-37 27t-51.5 23t-56.5 25q-25 -19 -25 -48z" unicode="§"/>
<glyph glyph-name="dieresis" horiz-adv-x="560" unicode="¨" d="M384 564q-35 0 -56.5 22.5t-21.5 55.5t21.5 55.5t56.5 22.5t56.5 -22.5t21.5 -55.5t-21.5 -55.5t-56.5 -22.5zM176 564q-35 0 -56.5 22.5t-21.5 55.5t21.5 55.5t56.5 22.5t56.5 -22.5t21.5 -55.5t-21.5 -55.5t-56.5 -22.5z"/>
<glyph glyph-name="copyright" horiz-adv-x="752" unicode="©" d="M192 324q0 44 16.5 80t43.5 61.5t62.5 39t73.5 13.5q48 0 80 -18t56 -42l-63 -70q-14 15 -28.5 23.5t-32.5 8.5q-45 0 -66 -28.5t-21 -67.5q0 -45 21.5 -71.5t59.5 -26.5q23 0 38.5 8t33.5 22l54 -78q-29 -23 -61 -36.5t-69 -13.5q-44 0 -80 13.5t-62.5 39t-41 62 t-14.5 81.5zM120 326q0 -60 19.5 -109t54 -84t81 -54t101.5 -19t101.5 19t81 54t54 84t19.5 109t-19.5 108.5t-54 82.5t-81 52.5t-101.5 18.5t-101.5 -18.5t-81 -52.5t-54 -82.5t-19.5 -108.5zM44 326q0 78 27 139.5t72.5 103.5t105.5 64.5t127 22.5t127 -22.5t105.5 -65 t72.5 -103.5t27 -139t-27 -140t-72.5 -105t-105.5 -66t-127 -23t-127 23t-105.5 66t-72.5 105t-27 140z"/>
<glyph glyph-name="ordfeminine" horiz-adv-x="364" unicode="ª" d="M169 342q13 0 21.5 5.5t17.5 14.5v44q-39 -5 -53.5 -16.5t-14.5 -25.5q0 -22 29 -22zM128 252q-24 0 -43 8.5t-32 22.5t-20 32.5t-7 38.5q0 53 42.5 82t139.5 38q-4 32 -44 32q-18 0 -39 -7t-47 -21l-42 78q36 21 73.5 32.5t76.5 11.5q65 0 103.5 -37t38.5 -117v-186h-96 l-10 32h-4q-18 -18 -40.5 -29t-49.5 -11z"/>
<glyph glyph-name="guillemotleft" horiz-adv-x="500" unicode="«" d="M50 192v120l134 140l62 -50l-108 -150l108 -150l-62 -50zM250 192v120l134 140l62 -50l-108 -150l108 -150l-62 -50z"/>
<glyph glyph-name="logicalnot" d="M34 390h472v-300h-124v180h-348v120z" unicode="¬"/>
<glyph glyph-name="uni00AD" horiz-adv-x="340" unicode="­" d="M44 314h252v-120h-252v120z"/>
<glyph glyph-name="registered" horiz-adv-x="477" unicode="®" d="M236 515q14 0 20 8t6 17q0 10 -7 16.5t-19 6.5h-18v-48h18zM154 610h94q36 0 59 -16.5t23 -49.5q0 -17 -8 -31t-26 -23l40 -74h-66l-28 56h-24v-56h-64v194zM238 362q63 0 102.5 40.5t39.5 109.5t-39.5 109.5t-102.5 40.5t-102.5 -40.5t-39.5 -109.5t39.5 -109.5 t102.5 -40.5zM238 308q-42 0 -79 15.5t-64 42.5t-43 64.5t-16 81.5t16 81.5t43 64.5t64 42.5t79 15.5t79 -15.5t64 -42.5t43 -64.5t16 -81.5t-16 -81.5t-43 -64.5t-64 -42.5t-79 -15.5z"/>
<glyph glyph-name="macron" horiz-adv-x="560" unicode="¯" d="M136 696h288v-108h-288v108z"/>
<glyph glyph-name="degree" horiz-adv-x="378" unicode="°" d="M190 466q29 0 46.5 19t17.5 51t-17.5 51t-46.5 19t-46.5 -19t-17.5 -51t17.5 -51t46.5 -19zM190 386q-32 0 -60 11.5t-48.5 31.5t-32 47.5t-11.5 59.5t11.5 59.5t32 47.5t48.5 31.5t60 11.5t60 -11.5t48.5 -31.5t32 -47.5t11.5 -59.5t-11.5 -59.5t-32 -47.5t-48.5 -31.5 t-60 -11.5z"/>
<glyph glyph-name="plusminus" d="M34 120h472v-120h-472v120zM208 290h-174v120h174v160h124v-160h174v-120h-174v-120h-124v120z" unicode="±"/>
<glyph glyph-name="two.sups" horiz-adv-x="380" unicode="²" d="M42 506q34 27 64.5 52.5t53 48t35.5 42.5t13 37q0 26 -13 40t-37 14q-18 0 -33.5 -11.5t-32.5 -32.5l-70 64q33 42 71 62t85 20q68 0 109 -35.5t41 -98.5q0 -44 -27.5 -84.5t-60.5 -79.5h100v-104h-298v66z"/>
<glyph glyph-name="three.sups" horiz-adv-x="380" unicode="³" d="M98 566q18 -24 35.5 -34t40.5 -10q20 0 34 10t14 28q0 23 -19.5 33.5t-62.5 10.5v70q31 0 49.5 8.5t18.5 31.5q0 17 -11 25.5t-29 8.5t-32 -10.5t-26 -25.5l-70 62q35 36 68.5 52t81.5 16q28 0 53 -7.5t44.5 -22t31 -35t11.5 -45.5q0 -30 -13 -50.5t-39 -37.5 q29 -14 47.5 -37.5t18.5 -56.5q0 -27 -13 -49.5t-34.5 -38.5t-49.5 -25t-59 -9q-53 0 -95 19.5t-69 60.5z"/>
<glyph glyph-name="acute" horiz-adv-x="560" unicode="´" d="M316 574h-124l88 154h164z"/>
<glyph glyph-name="uni00B5" horiz-adv-x="582" unicode="µ" d="M58 500h172v-286q0 -48 12 -64t38 -16q24 0 39.5 10t32.5 34v322h172v-500h-140l-12 66h-4q-15 -35 -41.5 -51.5t-56.5 -16.5q-14 0 -26.5 2.5t-23.5 11.5l10 -90v-122h-172v700z"/>
<glyph glyph-name="paragraph" horiz-adv-x="666" unicode="¶" d="M298 186q-53 0 -100 15.5t-82.5 45.5t-56.5 74.5t-21 102.5q0 64 21 107.5t56.5 70t82.5 37.5t100 11h44v-464h-44zM398 650h172v-730h-172v730z"/>
<glyph glyph-name="periodcentered" horiz-adv-x="320" unicode="·" d="M60 320q0 44 28 74t72 30t72 -30t28 -74t-28 -74t-72 -30t-72 30t-28 74z"/>
<glyph glyph-name="cedilla" horiz-adv-x="560" unicode="¸" d="M234 4h98l-18 -44q26 -9 42 -26.5t16 -49.5q0 -27 -15.5 -46.5t-41.5 -33t-60.5 -20.5t-72.5 -8l-12 66q35 3 57.5 12.5t22.5 29.5q0 11 -10.5 21t-45.5 19z"/>
<glyph glyph-name="one.sups" horiz-adv-x="380" unicode="¹" d="M162 710h-90v76q22 3 38 7t29.5 9t25 12t25.5 16h98v-390h-126v270z"/>
<glyph glyph-name="ordmasculine" horiz-adv-x="376" unicode="º" d="M188 346q25 0 34.5 21.5t9.5 57.5q0 37 -9.5 59t-34.5 22t-34.5 -22t-9.5 -59q0 -36 9.5 -57.5t34.5 -21.5zM188 252q-32 0 -62 11.5t-53 34t-37 54.5t-14 73t14 73.5t37 55t53 34.5t62 12t62 -12t53 -34.5t37 -55t14 -73.5t-14 -73t-37 -54.5t-53 -34t-62 -11.5z"/>
<glyph glyph-name="guillemotright" horiz-adv-x="500" unicode="»" d="M162 252l-108 150l62 50l134 -140v-120l-134 -140l-62 50zM362 252l-108 150l62 50l134 -140v-120l-134 -140l-62 50z"/>
<glyph glyph-name="onequarter" horiz-adv-x="820" unicode="¼" d="M131 530h-90v76q22 3 38 7t29.5 9t25 12t25.5 16h98v-390h-126v270zM188 -12l348 674h96l-348 -674h-96zM820 80h-58v-80h-110v80h-180v62l132 248h158v-230h58v-80zM652 160v30l6 120h-4l-36 -76l-34 -74h68z"/>
<glyph glyph-name="onehalf" horiz-adv-x="860" unicode="½" d="M131 530h-90v76q22 3 38 7t29.5 9t25 12t25.5 16h98v-390h-126v270zM174 -12l348 674h96l-348 -674h-96zM522 66q34 27 64.5 52.5t53 48t35.5 42.5t13 37q0 26 -13 40t-37 14q-18 0 -33.5 -11.5t-32.5 -32.5l-70 64q33 42 71 62t85 20q68 0 109 -35.5t41 -98.5 q0 -44 -27.5 -84.5t-60.5 -79.5h100v-104h-298v66z"/>
<glyph glyph-name="threequarters" horiz-adv-x="826" unicode="¾" d="M95 386q18 -24 35.5 -34t40.5 -10q20 0 34 10t14 28q0 23 -19.5 33.5t-62.5 10.5v70q31 0 49.5 8.5t18.5 31.5q0 17 -11 25.5t-29 8.5t-32 -10.5t-26 -25.5l-70 62q35 36 68.5 52t81.5 16q28 0 53 -7.5t44.5 -22t31 -35t11.5 -45.5q0 -30 -13 -50.5t-39 -37.5 q29 -14 47.5 -37.5t18.5 -56.5q0 -27 -13 -49.5t-34.5 -38.5t-49.5 -25t-59 -9q-53 0 -95 19.5t-69 60.5zM204 -12l348 674h96l-348 -674h-96zM826 80h-58v-80h-110v80h-180v62l132 248h158v-230h58v-80zM658 160v30l6 120h-4l-36 -76l-34 -74h68z"/>
<glyph glyph-name="questiondown" horiz-adv-x="478" unicode="¿" d="M352 408q0 -44 -28 -74t-72 -30t-72 30t-28 74t28 74t72 30t72 -30t28 -74zM326 256q2 -13 2 -26q0 -17 -5.5 -38.5t-19 -44t-31 -41.5t-32.5 -36t-25.5 -32.5t-10.5 -31.5q0 -27 16.5 -38.5t39.5 -11.5q26 0 44 12t38 30l94 -86q-35 -42 -83 -68t-105 -26 q-44 0 -81.5 10t-66 31t-44.5 54.5t-16 80.5q0 30 11 53.5t26.5 43.5t34 38t33.5 37t23 38.5t8 41.5v10h150z"/>
<glyph glyph-name="Agrave" horiz-adv-x="584" unicode="À" d="M380 138h-182l-32 -138h-176l198 650h208l198 -650h-182zM349 271l-11 45q-12 47 -24 102t-24 104h-4q-11 -50 -22.5 -104.5t-23.5 -101.5l-11 -45h120zM114 824h180l78 -124h-136z"/>
<glyph glyph-name="Aacute" horiz-adv-x="584" unicode="Á" d="M380 138h-182l-32 -138h-176l198 650h208l198 -650h-182zM349 271l-11 45q-12 47 -24 102t-24 104h-4q-11 -50 -22.5 -104.5t-23.5 -101.5l-11 -45h120zM340 700h-136l78 124h180z"/>
<glyph glyph-name="Acircumflex" horiz-adv-x="584" unicode="Â" d="M380 138h-182l-32 -138h-176l198 650h208l198 -650h-182zM349 271l-11 45q-12 47 -24 102t-24 104h-4q-11 -50 -22.5 -104.5t-23.5 -101.5l-11 -45h120zM108 700l96 124h168l96 -124h-130l-48 58h-4l-48 -58h-130z"/>
<glyph glyph-name="Atilde" horiz-adv-x="584" unicode="Ã" d="M380 138h-182l-32 -138h-176l198 650h208l198 -650h-182zM349 271l-11 45q-12 47 -24 102t-24 104h-4q-11 -50 -22.5 -104.5t-23.5 -101.5l-11 -45h120zM352 700q-20 0 -37.5 6.5t-32.5 14.5t-27.5 14.5t-22.5 6.5q-12 0 -22 -9t-16 -33h-86q9 76 42 111t74 35 q20 0 37.5 -6.5t32.5 -14.5t27 -14.5t23 -6.5q12 0 22 9t16 33h86q-5 -38 -16 -65.5t-26.5 -45.5t-34.5 -26.5t-39 -8.5z"/>
<glyph glyph-name="Adieresis" horiz-adv-x="584" unicode="Ä" d="M380 138h-182l-32 -138h-176l198 650h208l198 -650h-182zM349 271l-11 45q-12 47 -24 102t-24 104h-4q-11 -50 -22.5 -104.5t-23.5 -101.5l-11 -45h120zM392 694q-35 0 -56.5 22.5t-21.5 55.5t21.5 55.5t56.5 22.5t56.5 -22.5t21.5 -55.5t-21.5 -55.5t-56.5 -22.5z M184 694q-35 0 -56.5 22.5t-21.5 55.5t21.5 55.5t56.5 22.5t56.5 -22.5t21.5 -55.5t-21.5 -55.5t-56.5 -22.5z"/>
<glyph glyph-name="Aring" horiz-adv-x="584" unicode="Å" d="M380 138h-182l-32 -138h-176l198 650h208l198 -650h-182zM349 271l-11 45q-12 47 -24 102t-24 104h-4q-11 -50 -22.5 -104.5t-23.5 -101.5l-11 -45h120zM288 758q16 0 27 11t11 29t-11 29t-27 11t-27 -11t-11 -29t11 -29t27 -11zM288 696q-54 0 -87 27.5t-33 74.5 t33 74.5t87 27.5t87 -27.5t33 -74.5t-33 -74.5t-87 -27.5z"/>
<glyph glyph-name="AE" horiz-adv-x="854" unicode="Æ" d="M800 144v-144h-420v132h-165l-57 -132h-180l296 650h516v-144h-238v-102h202v-144h-202v-116h248zM380 265v257h-4q-18 -47 -34.5 -91t-33.5 -83l-36 -83h108z"/>
<glyph glyph-name="Ccedilla" horiz-adv-x="586" unicode="Ç" d="M44 320q0 82 26 145.5t70 107t101.5 66.5t120.5 23q62 0 112.5 -25.5t85.5 -60.5l-94 -106q-24 21 -47 32.5t-55 11.5q-29 0 -55.5 -13t-46 -37t-31 -59t-11.5 -79q0 -92 38.5 -141t101.5 -49q38 0 65.5 14.5t48.5 37.5l94 -104q-42 -48 -96 -72t-114 -24 q-64 0 -121 20.5t-100 62t-68 104t-25 145.5zM306 4h98l-18 -44q26 -9 42 -26.5t16 -49.5q0 -27 -15.5 -46.5t-41.5 -33t-60.5 -20.5t-72.5 -8l-12 66q35 3 57.5 12.5t22.5 29.5q0 11 -10.5 21t-45.5 19z"/>
<glyph glyph-name="Egrave" horiz-adv-x="556" unicode="È" d="M72 650h420v-144h-248v-102h212v-144h-212v-116h258v-144h-430v650zM116 824h180l78 -124h-136z"/>
<glyph glyph-name="Eacute" horiz-adv-x="556" unicode="É" d="M72 650h420v-144h-248v-102h212v-144h-212v-116h258v-144h-430v650zM342 700h-136l78 124h180z"/>
<glyph glyph-name="Ecircumflex" horiz-adv-x="556" unicode="Ê" d="M72 650h420v-144h-248v-102h212v-144h-212v-116h258v-144h-430v650zM110 700l96 124h168l96 -124h-130l-48 58h-4l-48 -58h-130z"/>
<glyph glyph-name="Edieresis" horiz-adv-x="556" unicode="Ë" d="M72 650h420v-144h-248v-102h212v-144h-212v-116h258v-144h-430v650zM394 694q-35 0 -56.5 22.5t-21.5 55.5t21.5 55.5t56.5 22.5t56.5 -22.5t21.5 -55.5t-21.5 -55.5t-56.5 -22.5zM186 694q-35 0 -56.5 22.5t-21.5 55.5t21.5 55.5t56.5 22.5t56.5 -22.5t21.5 -55.5 t-21.5 -55.5t-56.5 -22.5z"/>
<glyph glyph-name="Igrave" horiz-adv-x="316" unicode="Ì" d="M72 650h172v-650h-172v650zM-16 824h180l78 -124h-136z"/>
<glyph glyph-name="Iacute" horiz-adv-x="316" unicode="Í" d="M72 650h172v-650h-172v650zM210 700h-136l78 124h180z"/>
<glyph glyph-name="Icircumflex" horiz-adv-x="316" unicode="Î" d="M72 650h172v-650h-172v650zM-22 700l96 124h168l96 -124h-130l-48 58h-4l-48 -58h-130z"/>
<glyph glyph-name="Idieresis" horiz-adv-x="316" unicode="Ï" d="M72 650h172v-650h-172v650zM262 694q-35 0 -56.5 22.5t-21.5 55.5t21.5 55.5t56.5 22.5t56.5 -22.5t21.5 -55.5t-21.5 -55.5t-56.5 -22.5zM54 694q-35 0 -56.5 22.5t-21.5 55.5t21.5 55.5t56.5 22.5t56.5 -22.5t21.5 -55.5t-21.5 -55.5t-56.5 -22.5z"/>
<glyph glyph-name="Eth" horiz-adv-x="668" unicode="Ð" d="M290 650q74 0 135.5 -18t105.5 -57t68.5 -100t24.5 -147t-24 -148t-67.5 -102t-103 -59t-129.5 -19h-202v294h-74v74l74 6v276h192zM280 138q35 0 66 8.5t53.5 29.5t35.5 58t13 94t-13 93t-35.5 56t-53.5 27.5t-66 7.5h-10v-138h116v-80h-116v-156h10z"/>
<glyph glyph-name="Ntilde" horiz-adv-x="672" unicode="Ñ" d="M72 650h176l144 -290l62 -146h4q-3 26 -7 57t-7 63.5t-5.5 65t-2.5 62.5v188h164v-650h-176l-144 291l-62 145h-4q6 -56 14 -122t8 -126v-188h-164v650zM400 700q-20 0 -37.5 6.5t-32.5 14.5t-27.5 14.5t-22.5 6.5q-12 0 -22 -9t-16 -33h-86q9 76 42 111t74 35 q20 0 37.5 -6.5t32.5 -14.5t27 -14.5t23 -6.5q12 0 22 9t16 33h86q-5 -38 -16 -65.5t-26.5 -45.5t-34.5 -26.5t-39 -8.5z"/>
<glyph glyph-name="Ograve" horiz-adv-x="692" unicode="Ò" d="M346 136q59 0 92.5 51.5t33.5 140.5t-33.5 137.5t-92.5 48.5t-92.5 -48.5t-33.5 -137.5t33.5 -140.5t92.5 -51.5zM346 -12q-68 0 -123.5 23t-95 66.5t-61.5 107t-22 143.5t22 142.5t61.5 105t95 64.5t123.5 22q67 0 123 -22t95.5 -65t61.5 -105t22 -142t-22 -143.5 t-61.5 -107t-95.5 -66.5t-123 -23zM172 824h180l78 -124h-136z"/>
<glyph glyph-name="Oacute" horiz-adv-x="692" unicode="Ó" d="M346 136q59 0 92.5 51.5t33.5 140.5t-33.5 137.5t-92.5 48.5t-92.5 -48.5t-33.5 -137.5t33.5 -140.5t92.5 -51.5zM346 -12q-68 0 -123.5 23t-95 66.5t-61.5 107t-22 143.5t22 142.5t61.5 105t95 64.5t123.5 22q67 0 123 -22t95.5 -65t61.5 -105t22 -142t-22 -143.5 t-61.5 -107t-95.5 -66.5t-123 -23zM398 700h-136l78 124h180z"/>
<glyph glyph-name="Ocircumflex" horiz-adv-x="692" unicode="Ô" d="M346 136q59 0 92.5 51.5t33.5 140.5t-33.5 137.5t-92.5 48.5t-92.5 -48.5t-33.5 -137.5t33.5 -140.5t92.5 -51.5zM346 -12q-68 0 -123.5 23t-95 66.5t-61.5 107t-22 143.5t22 142.5t61.5 105t95 64.5t123.5 22q67 0 123 -22t95.5 -65t61.5 -105t22 -142t-22 -143.5 t-61.5 -107t-95.5 -66.5t-123 -23zM166 700l96 124h168l96 -124h-130l-48 58h-4l-48 -58h-130z"/>
<glyph glyph-name="Otilde" horiz-adv-x="692" unicode="Õ" d="M346 136q59 0 92.5 51.5t33.5 140.5t-33.5 137.5t-92.5 48.5t-92.5 -48.5t-33.5 -137.5t33.5 -140.5t92.5 -51.5zM346 -12q-68 0 -123.5 23t-95 66.5t-61.5 107t-22 143.5t22 142.5t61.5 105t95 64.5t123.5 22q67 0 123 -22t95.5 -65t61.5 -105t22 -142t-22 -143.5 t-61.5 -107t-95.5 -66.5t-123 -23zM410 700q-20 0 -37.5 6.5t-32.5 14.5t-27.5 14.5t-22.5 6.5q-12 0 -22 -9t-16 -33h-86q9 76 42 111t74 35q20 0 37.5 -6.5t32.5 -14.5t27 -14.5t23 -6.5q12 0 22 9t16 33h86q-5 -38 -16 -65.5t-26.5 -45.5t-34.5 -26.5t-39 -8.5z"/>
<glyph glyph-name="Odieresis" horiz-adv-x="692" unicode="Ö" d="M346 136q59 0 92.5 51.5t33.5 140.5t-33.5 137.5t-92.5 48.5t-92.5 -48.5t-33.5 -137.5t33.5 -140.5t92.5 -51.5zM346 -12q-68 0 -123.5 23t-95 66.5t-61.5 107t-22 143.5t22 142.5t61.5 105t95 64.5t123.5 22q67 0 123 -22t95.5 -65t61.5 -105t22 -142t-22 -143.5 t-61.5 -107t-95.5 -66.5t-123 -23zM450 694q-35 0 -56.5 22.5t-21.5 55.5t21.5 55.5t56.5 22.5t56.5 -22.5t21.5 -55.5t-21.5 -55.5t-56.5 -22.5zM242 694q-35 0 -56.5 22.5t-21.5 55.5t21.5 55.5t56.5 22.5t56.5 -22.5t21.5 -55.5t-21.5 -55.5t-56.5 -22.5z"/>
<glyph glyph-name="multiply" d="M47 191l138 138l-138 138l85 85l138 -138l138 138l85 -85l-138 -138l138 -138l-85 -85l-138 138l-138 -138z" unicode="×"/>
<glyph glyph-name="Oslash" horiz-adv-x="692" unicode="Ø" d="M597 532q25 -40 38 -91t13 -113q0 -80 -22 -143.5t-61.5 -107t-95.5 -66.5t-123 -23q-93 0 -160 42l-62 -76l-88 68l69 84q-29 42 -45 97.5t-16 124.5q0 80 22 142.5t61.5 105t95 64.5t123.5 22q100 0 174 -49l68 83l88 -68zM418 488q-31 26 -72 26q-59 0 -92.5 -48.5 t-33.5 -137.5q0 -42 7 -73zM287 153q26 -17 59 -17q59 0 92.5 51.5t33.5 140.5q0 26 -3 47z"/>
<glyph glyph-name="Ugrave" horiz-adv-x="672" unicode="Ù" d="M68 650h172v-356q0 -87 23.5 -122.5t74.5 -35.5t75.5 35.5t24.5 122.5v356h166v-336q0 -167 -65 -246.5t-201 -79.5q-137 0 -203.5 79.5t-66.5 246.5v336zM162 824h180l78 -124h-136z"/>
<glyph glyph-name="Uacute" horiz-adv-x="672" unicode="Ú" d="M68 650h172v-356q0 -87 23.5 -122.5t74.5 -35.5t75.5 35.5t24.5 122.5v356h166v-336q0 -167 -65 -246.5t-201 -79.5q-137 0 -203.5 79.5t-66.5 246.5v336zM388 700h-136l78 124h180z"/>
<glyph glyph-name="Ucircumflex" horiz-adv-x="672" unicode="Û" d="M68 650h172v-356q0 -87 23.5 -122.5t74.5 -35.5t75.5 35.5t24.5 122.5v356h166v-336q0 -167 -65 -246.5t-201 -79.5q-137 0 -203.5 79.5t-66.5 246.5v336zM156 700l96 124h168l96 -124h-130l-48 58h-4l-48 -58h-130z"/>
<glyph glyph-name="Udieresis" horiz-adv-x="672" unicode="Ü" d="M68 650h172v-356q0 -87 23.5 -122.5t74.5 -35.5t75.5 35.5t24.5 122.5v356h166v-336q0 -167 -65 -246.5t-201 -79.5q-137 0 -203.5 79.5t-66.5 246.5v336zM440 694q-35 0 -56.5 22.5t-21.5 55.5t21.5 55.5t56.5 22.5t56.5 -22.5t21.5 -55.5t-21.5 -55.5t-56.5 -22.5z M232 694q-35 0 -56.5 22.5t-21.5 55.5t21.5 55.5t56.5 22.5t56.5 -22.5t21.5 -55.5t-21.5 -55.5t-56.5 -22.5z"/>
<glyph glyph-name="Yacute" horiz-adv-x="544" unicode="Ý" d="M186 224l-196 426h184l48 -136q12 -37 24 -72t25 -73h4q13 38 25.5 73t25.5 72l48 136h180l-196 -426v-224h-172v224zM324 700h-136l78 124h180z"/>
<glyph glyph-name="Thorn" horiz-adv-x="634" unicode="Þ" d="M320 248q51 0 75.5 24t24.5 68t-26 62t-74 18h-72v-172h72zM76 650h172v-94h80q52 0 99.5 -10.5t83 -36t56.5 -67t21 -102.5q0 -60 -21.5 -103t-57.5 -70.5t-83 -41t-98 -13.5h-80v-112h-172v650z"/>
<glyph glyph-name="germandbls" horiz-adv-x="654" unicode="ß" d="M58 476q0 49 15 91t46.5 73t79 48.5t113.5 17.5q55 0 96.5 -15t69 -39t41 -55.5t13.5 -64.5q0 -35 -11.5 -59.5t-25 -42.5t-24.5 -33t-11 -31q0 -14 12.5 -24t31 -20.5t40.5 -23.5t40.5 -31.5t31 -45t12.5 -63.5q0 -35 -12 -66t-36 -54t-60.5 -36.5t-85.5 -13.5 q-45 0 -80.5 11.5t-73.5 32.5l58 116q24 -18 46.5 -26t43.5 -8q20 0 32 9.5t12 26.5q0 15 -12.5 26.5t-31 22t-40.5 23t-40.5 29t-31 39t-12.5 54.5q0 27 10 47t22 38t22 37.5t10 45.5t-14.5 43t-41.5 17q-43 0 -63.5 -31.5t-20.5 -82.5v-458h-170v476z"/>
<glyph glyph-name="agrave" horiz-adv-x="542" unicode="à" d="M206 156q0 -36 46 -36q21 0 34.5 9.5t27.5 24.5v68q-62 -9 -85 -27t-23 -39zM42 142q0 78 64 122.5t208 59.5q-6 52 -70 52q-27 0 -57 -10.5t-69 -31.5l-60 112q53 32 107 49t113 17q97 0 152.5 -55.5t55.5 -178.5v-278h-140l-12 48h-4q-30 -27 -63.5 -43.5t-74.5 -16.5 q-35 0 -63 12.5t-47.5 33.5t-29.5 49t-10 59zM121 728h164l88 -154h-124z"/>
<glyph glyph-name="aacute" horiz-adv-x="542" unicode="á" d="M206 156q0 -36 46 -36q21 0 34.5 9.5t27.5 24.5v68q-62 -9 -85 -27t-23 -39zM42 142q0 78 64 122.5t208 59.5q-6 52 -70 52q-27 0 -57 -10.5t-69 -31.5l-60 112q53 32 107 49t113 17q97 0 152.5 -55.5t55.5 -178.5v-278h-140l-12 48h-4q-30 -27 -63.5 -43.5t-74.5 -16.5 q-35 0 -63 12.5t-47.5 33.5t-29.5 49t-10 59zM321 574h-124l88 154h164z"/>
<glyph glyph-name="acircumflex" horiz-adv-x="542" unicode="â" d="M206 156q0 -36 46 -36q21 0 34.5 9.5t27.5 24.5v68q-62 -9 -85 -27t-23 -39zM42 142q0 78 64 122.5t208 59.5q-6 52 -70 52q-27 0 -57 -10.5t-69 -31.5l-60 112q53 32 107 49t113 17q97 0 152.5 -55.5t55.5 -178.5v-278h-140l-12 48h-4q-30 -27 -63.5 -43.5t-74.5 -16.5 q-35 0 -63 12.5t-47.5 33.5t-29.5 49t-10 59zM217 728h136l96 -154h-114l-48 74h-4l-48 -74h-114z"/>
<glyph glyph-name="atilde" horiz-adv-x="542" unicode="ã" d="M206 156q0 -36 46 -36q21 0 34.5 9.5t27.5 24.5v68q-62 -9 -85 -27t-23 -39zM42 142q0 78 64 122.5t208 59.5q-6 52 -70 52q-27 0 -57 -10.5t-69 -31.5l-60 112q53 32 107 49t113 17q97 0 152.5 -55.5t55.5 -178.5v-278h-140l-12 48h-4q-30 -27 -63.5 -43.5t-74.5 -16.5 q-35 0 -63 12.5t-47.5 33.5t-29.5 49t-10 59zM109 574q9 77 40 111.5t72 34.5q20 0 37.5 -6.5t32.5 -14.5t27 -14.5t23 -6.5q12 0 20 9t14 33h86q-9 -77 -40 -111.5t-72 -34.5q-20 0 -37.5 6.5t-32.5 14.5t-27.5 14.5t-22.5 6.5q-12 0 -20 -9t-14 -33h-86z"/>
<glyph glyph-name="adieresis" horiz-adv-x="542" unicode="ä" d="M206 156q0 -36 46 -36q21 0 34.5 9.5t27.5 24.5v68q-62 -9 -85 -27t-23 -39zM42 142q0 78 64 122.5t208 59.5q-6 52 -70 52q-27 0 -57 -10.5t-69 -31.5l-60 112q53 32 107 49t113 17q97 0 152.5 -55.5t55.5 -178.5v-278h-140l-12 48h-4q-30 -27 -63.5 -43.5t-74.5 -16.5 q-35 0 -63 12.5t-47.5 33.5t-29.5 49t-10 59zM389 564q-35 0 -56.5 22.5t-21.5 55.5t21.5 55.5t56.5 22.5t56.5 -22.5t21.5 -55.5t-21.5 -55.5t-56.5 -22.5zM181 564q-35 0 -56.5 22.5t-21.5 55.5t21.5 55.5t56.5 22.5t56.5 -22.5t21.5 -55.5t-21.5 -55.5t-56.5 -22.5z"/>
<glyph glyph-name="aring" horiz-adv-x="542" unicode="å" d="M206 156q0 -36 46 -36q21 0 34.5 9.5t27.5 24.5v68q-62 -9 -85 -27t-23 -39zM42 142q0 78 64 122.5t208 59.5q-6 52 -70 52q-27 0 -57 -10.5t-69 -31.5l-60 112q53 32 107 49t113 17q97 0 152.5 -55.5t55.5 -178.5v-278h-140l-12 48h-4q-30 -27 -63.5 -43.5t-74.5 -16.5 q-35 0 -63 12.5t-47.5 33.5t-29.5 49t-10 59zM285 612q16 0 27 12t11 32t-11 32t-27 12t-27 -12t-11 -32t11 -32t27 -12zM285 550q-54 0 -87 29t-33 77t33 77t87 29t87 -29t33 -77t-33 -77t-87 -29z"/>
<glyph glyph-name="ae" horiz-adv-x="786" unicode="æ" d="M604 302q0 33 -13.5 56.5t-48.5 23.5q-29 0 -48.5 -18t-25.5 -62h136zM58 446q53 32 104.5 49t105.5 17q44 0 79 -17t59 -47q33 32 66.5 48t75.5 16q51 0 89 -19.5t63 -53t37.5 -78.5t12.5 -95q0 -23 -2.5 -41t-4.5 -27h-275q11 -42 39.5 -59t66.5 -17q26 0 49.5 9.5 t50.5 24.5l58 -110q-41 -29 -90.5 -43.5t-91.5 -14.5q-53 0 -95.5 19t-74.5 53q-27 -21 -50.5 -34.5t-45.5 -22t-44.5 -12t-47.5 -3.5q-35 0 -63 12.5t-47.5 33.5t-29.5 49t-10 59q0 78 63 123t207 60q-3 26 -18.5 38.5t-49.5 12.5q-27 0 -57 -10.5t-69 -31.5zM206 156 q0 -36 46 -36q22 0 39.5 8t32.5 22q-9 27 -12 53l-2 19q-57 -9 -80.5 -26.5t-23.5 -39.5z"/>
<glyph glyph-name="ccedilla" horiz-adv-x="472" unicode="ç" d="M32 250q0 62 22 111t59 82.5t85.5 51t101.5 17.5q45 0 82.5 -15t63.5 -41l-78 -106q-17 14 -30.5 19t-27.5 5q-48 0 -75 -33.5t-27 -90.5t27.5 -90.5t68.5 -33.5q24 0 43.5 10t36.5 22l68 -108q-38 -33 -83.5 -47.5t-84.5 -14.5q-53 0 -99 17.5t-80 51t-53.5 82.5 t-19.5 111zM241 4h98l-18 -44q26 -9 42 -26.5t16 -49.5q0 -27 -15.5 -46.5t-41.5 -33t-60.5 -20.5t-72.5 -8l-12 66q35 3 57.5 12.5t22.5 29.5q0 11 -10.5 21t-45.5 19z"/>
<glyph glyph-name="egrave" horiz-adv-x="526" unicode="è" d="M344 306q0 32 -14.5 54t-53.5 22q-29 0 -50.5 -17t-29.5 -59h148zM32 250q0 61 20.5 109.5t54 82.5t76.5 52t89 18q55 0 96 -19t68 -52t40.5 -77t13.5 -94q0 -23 -2.5 -41t-4.5 -27h-285q12 -48 43 -66t73 -18q26 0 50.5 7.5t51.5 22.5l56 -102q-41 -29 -90.5 -43.5 t-91.5 -14.5q-55 0 -102 17.5t-81.5 51t-54.5 82.5t-20 111zM108 728h164l88 -154h-124z"/>
<glyph glyph-name="eacute" horiz-adv-x="526" unicode="é" d="M344 306q0 32 -14.5 54t-53.5 22q-29 0 -50.5 -17t-29.5 -59h148zM32 250q0 61 20.5 109.5t54 82.5t76.5 52t89 18q55 0 96 -19t68 -52t40.5 -77t13.5 -94q0 -23 -2.5 -41t-4.5 -27h-285q12 -48 43 -66t73 -18q26 0 50.5 7.5t51.5 22.5l56 -102q-41 -29 -90.5 -43.5 t-91.5 -14.5q-55 0 -102 17.5t-81.5 51t-54.5 82.5t-20 111zM308 574h-124l88 154h164z"/>
<glyph glyph-name="ecircumflex" horiz-adv-x="526" unicode="ê" d="M344 306q0 32 -14.5 54t-53.5 22q-29 0 -50.5 -17t-29.5 -59h148zM32 250q0 61 20.5 109.5t54 82.5t76.5 52t89 18q55 0 96 -19t68 -52t40.5 -77t13.5 -94q0 -23 -2.5 -41t-4.5 -27h-285q12 -48 43 -66t73 -18q26 0 50.5 7.5t51.5 22.5l56 -102q-41 -29 -90.5 -43.5 t-91.5 -14.5q-55 0 -102 17.5t-81.5 51t-54.5 82.5t-20 111zM204 728h136l96 -154h-114l-48 74h-4l-48 -74h-114z"/>
<glyph glyph-name="edieresis" horiz-adv-x="526" unicode="ë" d="M344 306q0 32 -14.5 54t-53.5 22q-29 0 -50.5 -17t-29.5 -59h148zM32 250q0 61 20.5 109.5t54 82.5t76.5 52t89 18q55 0 96 -19t68 -52t40.5 -77t13.5 -94q0 -23 -2.5 -41t-4.5 -27h-285q12 -48 43 -66t73 -18q26 0 50.5 7.5t51.5 22.5l56 -102q-41 -29 -90.5 -43.5 t-91.5 -14.5q-55 0 -102 17.5t-81.5 51t-54.5 82.5t-20 111zM376 564q-35 0 -56.5 22.5t-21.5 55.5t21.5 55.5t56.5 22.5t56.5 -22.5t21.5 -55.5t-21.5 -55.5t-56.5 -22.5zM168 564q-35 0 -56.5 22.5t-21.5 55.5t21.5 55.5t56.5 22.5t56.5 -22.5t21.5 -55.5t-21.5 -55.5 t-56.5 -22.5z"/>
<glyph glyph-name="igrave" horiz-adv-x="288" unicode="ì" d="M58 500h172v-500h-172v500zM-20 728h164l88 -154h-124z"/>
<glyph glyph-name="iacute" horiz-adv-x="288" unicode="í" d="M58 500h172v-500h-172v500zM180 574h-124l88 154h164z"/>
<glyph glyph-name="icircumflex" horiz-adv-x="288" unicode="î" d="M58 500h172v-500h-172v500zM76 728h136l96 -154h-114l-48 74h-4l-48 -74h-114z"/>
<glyph glyph-name="idieresis" horiz-adv-x="288" unicode="ï" d="M58 500h172v-500h-172v500zM248 564q-35 0 -56.5 22.5t-21.5 55.5t21.5 55.5t56.5 22.5t56.5 -22.5t21.5 -55.5t-21.5 -55.5t-56.5 -22.5zM40 564q-35 0 -56.5 22.5t-21.5 55.5t21.5 55.5t56.5 22.5t56.5 -22.5t21.5 -55.5t-21.5 -55.5t-56.5 -22.5z"/>
<glyph glyph-name="eth" horiz-adv-x="566" unicode="ð" d="M386 600q60 -60 97 -140.5t37 -189.5q0 -61 -17 -112.5t-48.5 -89t-77 -59t-103.5 -21.5q-48 0 -91 17t-75 48.5t-51 76t-19 100.5q0 55 17.5 97.5t46 71.5t64.5 44t74 15q24 0 48.5 -7t43.5 -24q-25 61 -74 109l-142 -71l-44 74l111 56q-18 11 -38 22.5t-42 22.5l74 104 q35 -18 70 -38.5t68 -44.5l143 72l44 -75zM280 126q16 0 31 7t25.5 23t17 41.5t6.5 62.5v20.5t-1 18.5q-18 18 -38.5 25.5t-43.5 7.5q-35 0 -59 -23t-24 -79q0 -53 25.5 -78.5t60.5 -25.5z"/>
<glyph glyph-name="ntilde" horiz-adv-x="582" unicode="ñ" d="M58 500h140l12 -60h4q30 29 68.5 50.5t89.5 21.5q82 0 119 -55.5t37 -148.5v-308h-172v286q0 48 -12 64t-38 16q-24 0 -40 -10t-36 -28v-328h-172v500zM138 574q9 77 40 111.5t72 34.5q20 0 37.5 -6.5t32.5 -14.5t27 -14.5t23 -6.5q12 0 20 9t14 33h86q-9 -77 -40 -111.5 t-72 -34.5q-20 0 -37.5 6.5t-32.5 14.5t-27.5 14.5t-22.5 6.5q-12 0 -20 -9t-14 -33h-86z"/>
<glyph glyph-name="ograve" horiz-adv-x="560" unicode="ò" d="M208 250q0 -57 16.5 -90.5t55.5 -33.5t55.5 33.5t16.5 90.5t-16.5 90.5t-55.5 33.5t-55.5 -33.5t-16.5 -90.5zM32 250q0 62 20.5 111t55 82.5t79.5 51t93 17.5t92.5 -17.5t79 -51t55.5 -82.5t21 -111t-21 -111t-55.5 -82.5t-79 -51t-92.5 -17.5t-93 17.5t-79.5 51 t-55 82.5t-20.5 111zM116 728h164l88 -154h-124z"/>
<glyph glyph-name="oacute" horiz-adv-x="560" unicode="ó" d="M208 250q0 -57 16.5 -90.5t55.5 -33.5t55.5 33.5t16.5 90.5t-16.5 90.5t-55.5 33.5t-55.5 -33.5t-16.5 -90.5zM32 250q0 62 20.5 111t55 82.5t79.5 51t93 17.5t92.5 -17.5t79 -51t55.5 -82.5t21 -111t-21 -111t-55.5 -82.5t-79 -51t-92.5 -17.5t-93 17.5t-79.5 51 t-55 82.5t-20.5 111zM316 574h-124l88 154h164z"/>
<glyph glyph-name="ocircumflex" horiz-adv-x="560" unicode="ô" d="M208 250q0 -57 16.5 -90.5t55.5 -33.5t55.5 33.5t16.5 90.5t-16.5 90.5t-55.5 33.5t-55.5 -33.5t-16.5 -90.5zM32 250q0 62 20.5 111t55 82.5t79.5 51t93 17.5t92.5 -17.5t79 -51t55.5 -82.5t21 -111t-21 -111t-55.5 -82.5t-79 -51t-92.5 -17.5t-93 17.5t-79.5 51 t-55 82.5t-20.5 111zM212 728h136l96 -154h-114l-48 74h-4l-48 -74h-114z"/>
<glyph glyph-name="otilde" horiz-adv-x="560" unicode="õ" d="M208 250q0 -57 16.5 -90.5t55.5 -33.5t55.5 33.5t16.5 90.5t-16.5 90.5t-55.5 33.5t-55.5 -33.5t-16.5 -90.5zM32 250q0 62 20.5 111t55 82.5t79.5 51t93 17.5t92.5 -17.5t79 -51t55.5 -82.5t21 -111t-21 -111t-55.5 -82.5t-79 -51t-92.5 -17.5t-93 17.5t-79.5 51 t-55 82.5t-20.5 111zM104 574q9 77 40 111.5t72 34.5q20 0 37.5 -6.5t32.5 -14.5t27 -14.5t23 -6.5q12 0 20 9t14 33h86q-9 -77 -40 -111.5t-72 -34.5q-20 0 -37.5 6.5t-32.5 14.5t-27.5 14.5t-22.5 6.5q-12 0 -20 -9t-14 -33h-86z"/>
<glyph glyph-name="odieresis" horiz-adv-x="560" unicode="ö" d="M208 250q0 -57 16.5 -90.5t55.5 -33.5t55.5 33.5t16.5 90.5t-16.5 90.5t-55.5 33.5t-55.5 -33.5t-16.5 -90.5zM32 250q0 62 20.5 111t55 82.5t79.5 51t93 17.5t92.5 -17.5t79 -51t55.5 -82.5t21 -111t-21 -111t-55.5 -82.5t-79 -51t-92.5 -17.5t-93 17.5t-79.5 51 t-55 82.5t-20.5 111zM384 564q-35 0 -56.5 22.5t-21.5 55.5t21.5 55.5t56.5 22.5t56.5 -22.5t21.5 -55.5t-21.5 -55.5t-56.5 -22.5zM176 564q-35 0 -56.5 22.5t-21.5 55.5t21.5 55.5t56.5 22.5t56.5 -22.5t21.5 -55.5t-21.5 -55.5t-56.5 -22.5z"/>
<glyph glyph-name="divide" d="M34 390h472v-120h-472v120zM178 150q0 38 26.5 62t65.5 24t65.5 -24t26.5 -62t-26.5 -62t-65.5 -24t-65.5 24t-26.5 62zM270 424q-39 0 -65.5 24t-26.5 62t26.5 62t65.5 24t65.5 -24t26.5 -62t-26.5 -62t-65.5 -24z" unicode="÷"/>
<glyph glyph-name="oslash" horiz-adv-x="560" unicode="ø" d="M469 424q27 -32 43 -76t16 -98q0 -62 -21 -111t-55.5 -82.5t-79 -51t-92.5 -17.5q-71 0 -131 37l-41 -51l-62 48l44 55q-27 32 -42.5 75.5t-15.5 97.5q0 62 20.5 111t55 82.5t79.5 51t93 17.5q71 0 130 -36l42 52l62 -48zM323 367q-17 13 -43 13q-39 0 -60.5 -33 t-21.5 -87q0 -13 0.5 -24t1.5 -22zM236 134q17 -14 44 -14q39 0 60.5 33t21.5 87q0 26 -3 47z"/>
<glyph glyph-name="ugrave" horiz-adv-x="578" unicode="ù" d="M54 500h172v-286q0 -48 12 -64t38 -16q24 0 39.5 10t32.5 34v322h172v-500h-140l-12 66h-4q-30 -36 -66.5 -57t-87.5 -21q-41 0 -70.5 14.5t-48.5 41t-28 64t-9 84.5v308zM126 728h164l88 -154h-124z"/>
<glyph glyph-name="uacute" horiz-adv-x="578" unicode="ú" d="M54 500h172v-286q0 -48 12 -64t38 -16q24 0 39.5 10t32.5 34v322h172v-500h-140l-12 66h-4q-30 -36 -66.5 -57t-87.5 -21q-41 0 -70.5 14.5t-48.5 41t-28 64t-9 84.5v308zM326 574h-124l88 154h164z"/>
<glyph glyph-name="ucircumflex" horiz-adv-x="578" unicode="û" d="M54 500h172v-286q0 -48 12 -64t38 -16q24 0 39.5 10t32.5 34v322h172v-500h-140l-12 66h-4q-30 -36 -66.5 -57t-87.5 -21q-41 0 -70.5 14.5t-48.5 41t-28 64t-9 84.5v308zM222 728h136l96 -154h-114l-48 74h-4l-48 -74h-114z"/>
<glyph glyph-name="udieresis" horiz-adv-x="578" unicode="ü" d="M54 500h172v-286q0 -48 12 -64t38 -16q24 0 39.5 10t32.5 34v322h172v-500h-140l-12 66h-4q-30 -36 -66.5 -57t-87.5 -21q-41 0 -70.5 14.5t-48.5 41t-28 64t-9 84.5v308zM394 564q-35 0 -56.5 22.5t-21.5 55.5t21.5 55.5t56.5 22.5t56.5 -22.5t21.5 -55.5t-21.5 -55.5 t-56.5 -22.5zM186 564q-35 0 -56.5 22.5t-21.5 55.5t21.5 55.5t56.5 22.5t56.5 -22.5t21.5 -55.5t-21.5 -55.5t-56.5 -22.5z"/>
<glyph glyph-name="yacute" horiz-adv-x="542" unicode="ý" d="M86 -48q7 -2 15.5 -4t16.5 -2q35 0 52.5 13.5t25.5 36.5l6 22l-190 482h172l60 -192q11 -35 19 -69.5t17 -72.5h4q8 36 15.5 71t16.5 71l50 192h164l-168 -492q-20 -51 -40.5 -88t-47.5 -61t-61.5 -35.5t-80.5 -11.5q-26 0 -42.5 2.5t-33.5 7.5zM312 574h-124l88 154h164 z"/>
<glyph glyph-name="thorn" horiz-adv-x="580" unicode="þ" d="M230 152q15 -14 31 -19t33 -5q30 0 52 28t22 100q0 62 -17.5 89t-52.5 27q-20 0 -35.5 -8t-32.5 -28v-184zM230 -176h-172v872h172v-163l-4 -65q23 21 52.5 32.5t61.5 11.5q46 0 84 -18t64.5 -51t41 -80t14.5 -105q0 -65 -17.5 -115t-46.5 -84.5t-66.5 -52.5t-77.5 -18 q-36 0 -61.5 11.5t-48.5 32.5l4 -70v-138z"/>
<glyph glyph-name="dotlessi" horiz-adv-x="288" unicode="ı" d="M58 500h172v-500h-172v500z"/>
<glyph glyph-name="OE" horiz-adv-x="880" unicode="Œ" d="M220 328q0 -58 13.5 -95t37 -58t55.5 -29t68 -8h14v374h-14q-36 0 -68 -7t-55.5 -27t-37 -56t-13.5 -94zM44 328q0 86 26.5 147t72.5 100t108 57t133 18h432v-144h-236v-102h200v-144h-200v-116h246v-144h-452q-68 0 -128 19t-105 59t-71 102t-26 148z"/>
<glyph glyph-name="oe" horiz-adv-x="816" unicode="œ" d="M634 302q0 33 -13.5 56.5t-48.5 23.5q-29 0 -48.5 -18t-25.5 -62h136zM32 250q0 62 19 111t52 82.5t76.5 51t92.5 17.5q51 0 88 -20.5t66 -53.5q32 36 71 55t81 19q51 0 89 -19.5t63 -53t37.5 -78.5t12.5 -95q0 -23 -2.5 -41t-4.5 -27h-275q11 -42 39.5 -59t66.5 -17 q26 0 49.5 9.5t50.5 24.5l58 -110q-41 -29 -90.5 -43.5t-91.5 -14.5q-41 0 -80.5 19t-71.5 55q-32 -36 -69.5 -55t-90.5 -19q-49 0 -92 17.5t-75 51t-50.5 82.5t-18.5 111zM206 250q0 -57 16.5 -90.5t49.5 -33.5t50.5 33.5t17.5 90.5t-17.5 90.5t-50.5 33.5t-49.5 -33.5 t-16.5 -90.5z"/>
<glyph glyph-name="Scaron" horiz-adv-x="564" unicode="Š" d="M130 199q35 -28 75.5 -45.5t76.5 -17.5q39 0 56.5 12t17.5 34q0 12 -6 20t-17.5 15t-27.5 13.5t-37 14.5l-81 34q-26 10 -50 26.5t-42 39t-28.5 51.5t-10.5 64q0 42 18 78.5t50 64t76.5 43.5t97.5 16q56 0 113.5 -21t102.5 -66l-86 -108q-33 23 -63.5 35t-66.5 12 q-32 0 -50 -11t-18 -33q0 -23 25.5 -35.5t70.5 -29.5l79 -31q61 -24 94 -67t33 -111q0 -41 -17 -79t-49.5 -66.5t-79.5 -45.5t-108 -17q-62 0 -127.5 22.5t-118.5 70.5zM476 824l-96 -124h-168l-96 124h130l48 -58h4l48 58h130z"/>
<glyph glyph-name="scaron" horiz-adv-x="452" unicode="š" d="M94 164q68 -50 122 -50q27 0 38.5 7.5t11.5 22.5q0 10 -8 17.5t-21.5 14t-30.5 12.5t-36 14q-22 9 -44.5 21.5t-40.5 30.5t-29.5 41.5t-11.5 54.5q0 37 14.5 67t40.5 51t62.5 32.5t80.5 11.5q62 0 106.5 -20.5t77.5 -45.5l-76 -102q-27 20 -53 31t-49 11q-44 0 -44 -28 q0 -10 7.5 -17t20.5 -13t30 -11.5t36 -12.5q22 -8 45 -20t41.5 -29.5t30 -42t11.5 -58.5q0 -35 -14 -65.5t-41 -53t-67 -35t-92 -12.5q-48 0 -101.5 19t-92.5 51zM78 728h114l48 -74h4l48 74h114l-96 -154h-136z"/>
<glyph glyph-name="Ydieresis" horiz-adv-x="544" unicode="Ÿ" d="M186 224l-196 426h184l48 -136q12 -37 24 -72t25 -73h4q13 38 25.5 73t25.5 72l48 136h180l-196 -426v-224h-172v224zM376 694q-35 0 -56.5 22.5t-21.5 55.5t21.5 55.5t56.5 22.5t56.5 -22.5t21.5 -55.5t-21.5 -55.5t-56.5 -22.5zM168 694q-35 0 -56.5 22.5t-21.5 55.5 t21.5 55.5t56.5 22.5t56.5 -22.5t21.5 -55.5t-21.5 -55.5t-56.5 -22.5z"/>
<glyph glyph-name="circumflex" horiz-adv-x="560" unicode="ˆ" d="M212 728h136l96 -154h-114l-48 74h-4l-48 -74h-114z"/>
<glyph glyph-name="tilde" horiz-adv-x="560" unicode="˜" d="M104 574q9 77 40 111.5t72 34.5q20 0 37.5 -6.5t32.5 -14.5t27 -14.5t23 -6.5q12 0 20 9t14 33h86q-9 -77 -40 -111.5t-72 -34.5q-20 0 -37.5 6.5t-32.5 14.5t-27.5 14.5t-22.5 6.5q-12 0 -20 -9t-14 -33h-86z"/>
<glyph glyph-name="uni0300" horiz-adv-x="0" unicode="̀" d="M-164 728h164l88 -154h-124z"/>
<glyph glyph-name="uni0301" horiz-adv-x="0" unicode="́" d="M36 574h-124l88 154h164z"/>
<glyph glyph-name="uni0302" horiz-adv-x="0" unicode="̂" d="M-68 728h136l96 -154h-114l-48 74h-4l-48 -74h-114z"/>
<glyph glyph-name="uni0303" horiz-adv-x="0" unicode="̃" d="M-176 574q9 77 40 111.5t72 34.5q20 0 37.5 -6.5t32.5 -14.5t27 -14.5t23 -6.5q12 0 20 9t14 33h86q-9 -77 -40 -111.5t-72 -34.5q-20 0 -37.5 6.5t-32.5 14.5t-27.5 14.5t-22.5 6.5q-12 0 -20 -9t-14 -33h-86z"/>
<glyph glyph-name="uni0304" horiz-adv-x="0" unicode="̄" d="M-144 696h288v-108h-288v108z"/>
<glyph glyph-name="uni0308" horiz-adv-x="0" unicode="̈" d="M104 564q-35 0 -56.5 22.5t-21.5 55.5t21.5 55.5t56.5 22.5t56.5 -22.5t21.5 -55.5t-21.5 -55.5t-56.5 -22.5zM-104 564q-35 0 -56.5 22.5t-21.5 55.5t21.5 55.5t56.5 22.5t56.5 -22.5t21.5 -55.5t-21.5 -55.5t-56.5 -22.5z"/>
<glyph glyph-name="uni030A" horiz-adv-x="0" unicode="̊" d="M0 612q16 0 27 12t11 32t-11 32t-27 12t-27 -12t-11 -32t11 -32t27 -12zM0 550q-54 0 -87 29t-33 77t33 77t87 29t87 -29t33 -77t-33 -77t-87 -29z"/>
<glyph glyph-name="uni030C" horiz-adv-x="0" unicode="̌" d="M-164 728h114l48 -74h4l48 74h114l-96 -154h-136z"/>
<glyph glyph-name="uni0327" horiz-adv-x="0" unicode="̧" d="M-46 4h98l-18 -44q26 -9 42 -26.5t16 -49.5q0 -27 -15.5 -46.5t-41.5 -33t-60.5 -20.5t-72.5 -8l-12 66q35 3 57.5 12.5t22.5 29.5q0 11 -10.5 21t-45.5 19z"/>
<glyph glyph-name="pi" horiz-adv-x="624" unicode="π" d="M102 366h-86v128l76 6h506v-134h-64v-196q0 -26 9.5 -35t18.5 -9h8.5t9.5 2l20 -126q-14 -6 -34.5 -10t-49.5 -4q-44 0 -73.5 13.5t-47.5 38.5t-25.5 59.5t-7.5 76.5v190h-89l-1 -366h-170v366z"/>
<glyph glyph-name="a.sups" horiz-adv-x="364" unicode="ᵃ" d="M169 342q13 0 21.5 5.5t17.5 14.5v44q-39 -5 -53.5 -16.5t-14.5 -25.5q0 -22 29 -22zM128 252q-24 0 -43 8.5t-32 22.5t-20 32.5t-7 38.5q0 53 42.5 82t139.5 38q-4 32 -44 32q-18 0 -39 -7t-47 -21l-42 78q36 21 73.5 32.5t76.5 11.5q65 0 103.5 -37t38.5 -117v-186h-96 l-10 32h-4q-18 -18 -40.5 -29t-49.5 -11z"/>
<glyph glyph-name="o.sups" horiz-adv-x="376" unicode="ᵒ" d="M188 346q25 0 34.5 21.5t9.5 57.5q0 37 -9.5 59t-34.5 22t-34.5 -22t-9.5 -59q0 -36 9.5 -57.5t34.5 -21.5zM188 252q-32 0 -62 11.5t-53 34t-37 54.5t-14 73t14 73.5t37 55t53 34.5t62 12t62 -12t53 -34.5t37 -55t14 -73.5t-14 -73t-37 -54.5t-53 -34t-62 -11.5z"/>
<glyph glyph-name="endash" horiz-adv-x="480" unicode="–" d="M44 308h392v-108h-392v108z"/>
<glyph glyph-name="emdash" horiz-adv-x="800" unicode="—" d="M44 308h712v-108h-712v108z"/>
<glyph glyph-name="quoteleft" horiz-adv-x="320" unicode="‘" d="M246 604q-48 -21 -72 -51.5t-24 -75.5q3 1 10 1q36 0 61 -22t25 -60q0 -42 -24 -67t-62 -25q-53 0 -79.5 38.5t-26.5 107.5q0 75 38 132.5t118 95.5z"/>
<glyph glyph-name="quoteright" horiz-adv-x="320" unicode="’" d="M74 396q48 21 72 51.5t24 75.5q-3 -1 -10 -1q-36 0 -61 22t-25 60q0 42 24 67t62 25q53 0 79.5 -38.5t26.5 -107.5q0 -75 -38 -132.5t-118 -95.5z"/>
<glyph glyph-name="quotesinglbase" horiz-adv-x="320" unicode="‚" d="M74 -103q48 21 72 51.5t24 75.5q-3 -1 -10 -1q-36 0 -61 22t-25 60q0 42 24 67t62 25q53 0 79.5 -38.5t26.5 -107.5q0 -75 -38 -132.5t-118 -95.5z"/>
<glyph glyph-name="quotedblleft" horiz-adv-x="580" unicode="“" d="M246 604q-48 -21 -72 -51.5t-24 -75.5q3 1 10 1q36 0 61 -22t25 -60q0 -42 -24 -67t-62 -25q-53 0 -79.5 38.5t-26.5 107.5q0 75 38 132.5t118 95.5zM506 604q-48 -21 -72 -51.5t-24 -75.5q3 1 10 1q36 0 61 -22t25 -60q0 -42 -24 -67t-62 -25q-53 0 -79.5 38.5 t-26.5 107.5q0 75 38 132.5t118 95.5z"/>
<glyph glyph-name="quotedblright" horiz-adv-x="580" unicode="”" d="M74 396q48 21 72 51.5t24 75.5q-3 -1 -10 -1q-36 0 -61 22t-25 60q0 42 24 67t62 25q53 0 79.5 -38.5t26.5 -107.5q0 -75 -38 -132.5t-118 -95.5zM334 396q48 21 72 51.5t24 75.5q-3 -1 -10 -1q-36 0 -61 22t-25 60q0 42 24 67t62 25q53 0 79.5 -38.5t26.5 -107.5 q0 -75 -38 -132.5t-118 -95.5z"/>
<glyph glyph-name="dagger" horiz-adv-x="532" unicode="†" d="M208 418l-168 -10v136l168 -10l-10 178h136l-10 -178l168 10v-136l-168 10l10 -498h-136z"/>
<glyph glyph-name="daggerdbl" horiz-adv-x="532" unicode="‡" d="M40 224l168 -14l-10 106l10 106l-168 -14v136l168 -10l-10 178h136l-10 -178l168 10v-136l-168 14l10 -106l-10 -106l168 14v-136l-168 10l10 -178h-136l10 178l-168 -10v136z"/>
<glyph glyph-name="ellipsis" horiz-adv-x="990" unicode="…" d="M70 92q0 44 28 74t72 30t72 -30t28 -74t-28 -74t-72 -30t-72 30t-28 74zM400 92q0 44 28 74t72 30t72 -30t28 -74t-28 -74t-72 -30t-72 30t-28 74zM730 92q0 44 28 74t72 30t72 -30t28 -74t-28 -74t-72 -30t-72 30t-28 74z"/>
<glyph glyph-name="perthousand" horiz-adv-x="1270" unicode="‰" d="M1080 82q20 0 35 24t15 90q0 33 -4 54.5t-11 34.5t-16 18t-19 5t-19 -5t-16 -18t-11 -34.5t-4 -54.5q0 -66 15 -90t35 -24zM1080 -12q-36 0 -67 14t-53.5 41t-35 65.5t-12.5 87.5t12.5 87t35 64.5t53.5 40.5t67 14t66.5 -14t53 -40.5t35.5 -64.5t13 -87t-13 -87.5 t-35.5 -65.5t-53 -41t-66.5 -14zM680 82q20 0 35 24t15 90q0 33 -4 54.5t-11 34.5t-16 18t-19 5t-19 -5t-16 -18t-11 -34.5t-4 -54.5q0 -66 15 -90t35 -24zM680 -12q-36 0 -67 14t-53.5 41t-35 65.5t-12.5 87.5t12.5 87t35 64.5t53.5 40.5t67 14t66.5 -14t53 -40.5 t35.5 -64.5t13 -87t-13 -87.5t-35.5 -65.5t-53 -41t-66.5 -14zM190 342q20 0 35 24t15 90q0 33 -4 54.5t-11 34.5t-16 18t-19 5t-19 -5t-16 -18t-11 -34.5t-4 -54.5q0 -66 15 -90t35 -24zM190 248q-36 0 -67 14t-53.5 41t-35 65.5t-12.5 87.5t12.5 87t35 64.5t53.5 40.5 t67 14t66.5 -14t53 -40.5t35.5 -64.5t13 -87t-13 -87.5t-35.5 -65.5t-53 -41t-66.5 -14zM214 -12l348 674h96l-348 -674h-96z"/>
<glyph glyph-name="uni2032" horiz-adv-x="320" unicode="′" d="M100 684h172l-29 -162l-52 -198h-112z"/>
<glyph glyph-name="uni2033" horiz-adv-x="580" unicode="″" d="M100 684h172l-29 -162l-52 -198h-112zM360 684h172l-29 -162l-52 -198h-112z"/>
<glyph glyph-name="guilsinglleft" horiz-adv-x="300" unicode="‹" d="M50 192v120l134 140l62 -50l-108 -150l108 -150l-62 -50z"/>
<glyph glyph-name="guilsinglright" horiz-adv-x="300" unicode="›" d="M162 252l-108 150l62 50l134 -140v-120l-134 -140l-62 50z"/>
<glyph glyph-name="fraction" horiz-adv-x="100" unicode="⁄" d="M-172 -12l348 674h96l-348 -674h-96z"/>
<glyph glyph-name="Euro" d="M530 80q-38 -45 -85 -68.5t-101 -23.5q-48 0 -90 14t-76 41.5t-58.5 68.5t-36.5 96h-63v78l52 4v22v12t1 12h-53v78l63 5q26 110 98 168.5t173 58.5q45 0 89 -19.5t79 -58.5l-94 -92q-18 17 -37 27.5t-43 10.5q-70 0 -93 -94h197v-84h-208v-18v-13.5t1 -12.5h167v-84 h-155q27 -88 97 -88q26 0 45.5 12.5t36.5 35.5z" unicode="€"/>
<glyph glyph-name="trademark" horiz-adv-x="700" unicode="™" d="M86 576h-82v100h274v-100h-82v-216h-110v216zM318 676h126l34 -82l18 -62h4l18 62l34 82h126v-316h-106v80l12 120h-4l-46 -154h-72l-46 154h-4l12 -120v-80h-106v316z"/>
<glyph glyph-name="uni2190" horiz-adv-x="616" unicode="←" d="M20 254l280 268l80 -92l-130 -110h326v-136h-326l130 -110l-80 -92l-280 268v4z"/>
<glyph glyph-name="arrowup" horiz-adv-x="616" unicode="↑" d="M310 530l268 -280l-92 -80l-110 130v-326h-136v326l-110 -130l-92 80l268 280h4z"/>
<glyph glyph-name="uni2192" horiz-adv-x="616" unicode="→" d="M596 250l-280 -268l-80 92l130 110h-326v136h326l-130 110l80 92l280 -268v-4z"/>
<glyph glyph-name="arrowdown" horiz-adv-x="616" unicode="↓" d="M306 -26l-268 280l92 80l110 -130v326h136v-326l110 130l92 -80l-268 -280h-4z"/>
<glyph glyph-name="partialdiff" horiz-adv-x="596" unicode="∂" d="M114 596q44 36 90 56t101 20q62 0 107.5 -23t75 -63.5t44 -95.5t14.5 -120q0 -86 -21.5 -156.5t-60.5 -120.5t-93 -77.5t-118 -27.5q-42 0 -78.5 14t-64 40t-43.5 62.5t-16 82.5q0 52 16.5 95.5t45 74.5t67.5 48t85 17q33 0 64.5 -15t54.5 -42v10q0 34 -4.5 63t-16 50.5 t-30.5 33.5t-47 12q-29 0 -52.5 -11t-46.5 -33zM272 126q14 0 28.5 5t27.5 17.5t24 34.5t19 56q-16 29 -38 41t-46 12q-15 0 -29 -5t-25.5 -16t-18 -29t-6.5 -45q0 -38 19.5 -54.5t44.5 -16.5z"/>
<glyph glyph-name="product" horiz-adv-x="724" unicode="∏" d="M76 634h572v-754h-172v604h-228v-604h-172v754z"/>
<glyph glyph-name="summation" horiz-adv-x="546" unicode="∑" d="M222 256l-184 278v100h474v-144h-266v-4l150 -230l-156 -228v-4h294v-144h-506v100z"/>
<glyph glyph-name="minus" d="M34 390h472v-120h-472v120z" unicode="−"/>
<glyph glyph-name="radical" horiz-adv-x="600" unicode="√" d="M304 180q6 -23 11.5 -45t10.5 -45h4q3 23 7 45t9 45l150 640h112l-216 -894h-116l-150 404l-76 -30l-28 78l190 76z"/>
<glyph glyph-name="infinity" horiz-adv-x="826" unicode="∞" d="M228 252q27 0 49.5 15t40.5 41q-18 29 -43.5 48.5t-52.5 19.5q-33 0 -47.5 -17t-14.5 -41t17 -45t51 -21zM458 354q13 -18 26.5 -35.5t28.5 -31t32 -21.5t37 -8q39 0 61.5 24t22.5 56q0 42 -24.5 65t-65.5 23q-30 0 -60.5 -17t-57.5 -55zM213 128q-38 0 -70.5 15.5 t-56 41t-37 59.5t-13.5 70q0 105 55 162.5t145 57.5q57 0 96 -25t66 -63h4q40 51 86 77.5t105 26.5q41 0 77 -15.5t62.5 -43.5t42 -66t15.5 -83q0 -59 -16.5 -104t-45 -76t-66 -46.5t-79.5 -15.5q-63 0 -110 26.5t-95 89.5h-4q-27 -36 -67 -62t-94 -26z"/>
<glyph glyph-name="approxequal" d="M26 438q41 60 81 84t79 24q31 0 54 -11.5t42 -25t36.5 -24.5t37.5 -11t37.5 15t32.5 41l88 -68q-41 -60 -81 -84t-79 -24q-32 0 -54.5 11t-41.5 24.5t-36.5 25t-37.5 11.5t-37.5 -15t-32.5 -41zM26 199q41 60 81 84t79 24q31 0 54 -11.5t42 -25t36.5 -24.5t37.5 -11 t37.5 15t32.5 41l88 -68q-41 -60 -81 -84t-79 -24q-32 0 -54.5 11t-41.5 24.5t-36.5 25t-37.5 11.5t-37.5 -15t-32.5 -41z" unicode="≈"/>
<glyph glyph-name="notequal" d="M118 150h-84v120h150l66 120h-216v120h282l70 120h106l-70 -120h84v-120h-150l-66 -120h216v-120h-282l-70 -120h-106z" unicode="≠"/>
<glyph glyph-name="lessequal" d="M34 432l472 138v-140l-158 -36l-140 -30v-4l140 -30l158 -36v-140l-472 138v140zM34 120h472v-120h-472v120z" unicode="≤"/>
<glyph glyph-name="greaterequal" d="M506 292l-472 -138v140l158 36l140 30v4l-140 30l-158 36v140l472 -138v-140zM34 120h472v-120h-472v120z" unicode="≥"/>
<glyph glyph-name="lozenge" horiz-adv-x="560" unicode="◊" d="M282 134l50 116l38 80l-38 80l-50 116h-4l-50 -116l-38 -80l38 -80l50 -116h4zM50 330l162 340h136l162 -340l-162 -340h-136z"/>
<glyph glyph-name="zero.dnom" d="M190 82q20 0 35 24t15 90q0 33 -4 54.5t-11 34.5t-16 18t-19 5t-19 -5t-16 -18t-11 -34.5t-4 -54.5q0 -66 15 -90t35 -24zM190 -12q-36 0 -67 14t-53.5 41t-35 65.5t-12.5 87.5t12.5 87t35 64.5t53.5 40.5t67 14t66.5 -14t53 -40.5t35.5 -64.5t13 -87t-13 -87.5 t-35.5 -65.5t-53 -41t-66.5 -14z" horiz-adv-x="380"/>
<glyph glyph-name="one.dnom" d="M162 270h-90v76q22 3 38 7t29.5 9t25 12t25.5 16h98v-390h-126v270z" horiz-adv-x="380"/>
<glyph glyph-name="two.dnom" d="M42 66q34 27 64.5 52.5t53 48t35.5 42.5t13 37q0 26 -13 40t-37 14q-18 0 -33.5 -11.5t-32.5 -32.5l-70 64q33 42 71 62t85 20q68 0 109 -35.5t41 -98.5q0 -44 -27.5 -84.5t-60.5 -79.5h100v-104h-298v66z" horiz-adv-x="380"/>
<glyph glyph-name="three.dnom" d="M98 126q18 -24 35.5 -34t40.5 -10q20 0 34 10t14 28q0 23 -19.5 33.5t-62.5 10.5v70q31 0 49.5 8.5t18.5 31.5q0 17 -11 25.5t-29 8.5t-32 -10.5t-26 -25.5l-70 62q35 36 68.5 52t81.5 16q28 0 53 -7.5t44.5 -22t31 -35t11.5 -45.5q0 -30 -13 -50.5t-39 -37.5 q29 -14 47.5 -37.5t18.5 -56.5q0 -27 -13 -49.5t-34.5 -38.5t-49.5 -25t-59 -9q-53 0 -95 19.5t-69 60.5z" horiz-adv-x="380"/>
<glyph glyph-name="four.dnom" d="M380 80h-58v-80h-110v80h-180v62l132 248h158v-230h58v-80zM212 160v30l6 120h-4l-36 -76l-34 -74h68z" horiz-adv-x="380"/>
<glyph glyph-name="uni0300.cap" d="M-174 824h180l78 -124h-136z" horiz-adv-x="0"/>
<glyph glyph-name="uni0301.cap" d="M52 700h-136l78 124h180z" horiz-adv-x="0"/>
<glyph glyph-name="uni0302.cap" d="M-180 700l96 124h168l96 -124h-130l-48 58h-4l-48 -58h-130z" horiz-adv-x="0"/>
<glyph glyph-name="uni0303.cap" d="M64 700q-20 0 -37.5 6.5t-32.5 14.5t-27.5 14.5t-22.5 6.5q-12 0 -22 -9t-16 -33h-86q9 76 42 111t74 35q20 0 37.5 -6.5t32.5 -14.5t27 -14.5t23 -6.5q12 0 22 9t16 33h86q-5 -38 -16 -65.5t-26.5 -45.5t-34.5 -26.5t-39 -8.5z" horiz-adv-x="0"/>
<glyph glyph-name="uni0308.cap" d="M104 694q-35 0 -56.5 22.5t-21.5 55.5t21.5 55.5t56.5 22.5t56.5 -22.5t21.5 -55.5t-21.5 -55.5t-56.5 -22.5zM-104 694q-35 0 -56.5 22.5t-21.5 55.5t21.5 55.5t56.5 22.5t56.5 -22.5t21.5 -55.5t-21.5 -55.5t-56.5 -22.5z" horiz-adv-x="0"/>
<glyph glyph-name="uni030A.cap" d="M0 758q16 0 27 11t11 29t-11 29t-27 11t-27 -11t-11 -29t11 -29t27 -11zM0 696q-54 0 -87 27.5t-33 74.5t33 74.5t87 27.5t87 -27.5t33 -74.5t-33 -74.5t-87 -27.5z" horiz-adv-x="0"/>
<glyph glyph-name="uni030C.cap" d="M180 824l-96 -124h-168l-96 124h130l48 -58h4l48 58h130z" horiz-adv-x="0"/>
<glyph glyph-name="uni0327.cap" d="M-46 4h98l-18 -44q26 -9 42 -26.5t16 -49.5q0 -27 -15.5 -46.5t-41.5 -33t-60.5 -20.5t-72.5 -8l-12 66q35 3 57.5 12.5t22.5 29.5q0 11 -10.5 21t-45.5 19z" horiz-adv-x="0"/>
</font>
</defs>
</svg>
